<?xml version="1.0" encoding="UTF-8"?>
<svg xmlns="http://www.w3.org/2000/svg" xmlns:xlink="http://www.w3.org/1999/xlink" width="32px" height="px" viewBox="0 0 32 32" version="1.1">
<g id="surface1">
<path style=" stroke:none;fill-rule:nonzero;fill:rgb(91.764706%,26.666667%,20.784314%);fill-opacity:1;" d="M 16.578125 19.105469 L 3.890625 11.03125 C 2.523438 10.128906 2.136719 8.296875 3.015625 6.917969 C 3.890625 5.539062 5.714844 5.117188 7.109375 5.96875 L 16.421875 11.894531 L 24.78125 6.042969 C 26.136719 5.125 27.980469 5.464844 28.921875 6.804688 C 29.859375 8.148438 29.546875 9.996094 28.21875 10.957031 Z M 16.578125 19.105469 "/>
<path style=" stroke:none;fill-rule:nonzero;fill:rgb(0%,67.45098%,27.843137%);fill-opacity:1;" d="M 27.5 26.5 L 23.5 26.5 L 23.5 8.5 C 23.5 6.84375 24.84375 5.5 26.5 5.5 C 28.15625 5.5 29.5 6.84375 29.5 8.5 L 29.5 24.5 C 29.5 25.605469 28.605469 26.5 27.5 26.5 Z M 27.5 26.5 "/>
<path style=" stroke:none;fill-rule:nonzero;fill:rgb(100%,72.941176%,0%);fill-opacity:1;" d="M 29.457031 8.066406 C 29.449219 8.003906 29.449219 7.945312 29.4375 7.882812 C 29.417969 7.792969 29.378906 7.707031 29.351562 7.621094 C 29.328125 7.519531 29.292969 7.417969 29.257812 7.320312 C 29.238281 7.273438 29.207031 7.230469 29.183594 7.183594 C 29.121094 7.050781 29.050781 6.921875 28.96875 6.800781 C 28.929688 6.742188 28.878906 6.691406 28.835938 6.636719 C 28.757812 6.539062 28.675781 6.441406 28.589844 6.351562 C 28.523438 6.289062 28.445312 6.234375 28.375 6.175781 C 28.296875 6.109375 28.21875 6.046875 28.132812 5.988281 C 28.054688 5.9375 27.96875 5.898438 27.882812 5.855469 C 27.796875 5.808594 27.710938 5.757812 27.617188 5.71875 C 27.527344 5.683594 27.433594 5.660156 27.339844 5.636719 C 27.246094 5.609375 27.15625 5.574219 27.058594 5.558594 C 26.941406 5.539062 26.824219 5.527344 26.703125 5.519531 C 26.628906 5.515625 26.550781 5.503906 26.476562 5.503906 C 26.335938 5.507812 26.191406 5.519531 26.054688 5.546875 C 25.996094 5.554688 25.941406 5.554688 25.886719 5.566406 C 25.695312 5.621094 25.507812 5.683594 25.320312 5.742188 C 25.269531 5.765625 25.222656 5.796875 25.175781 5.824219 C 24.136719 6.304688 23.480469 7.355469 23.5 8.5 L 23.5 14.261719 L 28.21875 10.957031 C 29.167969 10.320312 29.652344 9.1875 29.457031 8.066406 Z M 29.457031 8.066406 "/>
<path style=" stroke:none;fill-rule:nonzero;fill:rgb(25.882353%,52.156863%,95.686275%);fill-opacity:1;" d="M 5.5 5.5 C 7.15625 5.5 8.5 6.84375 8.5 8.5 L 8.5 26.5 L 4.5 26.5 C 3.394531 26.5 2.5 25.605469 2.5 24.5 L 2.5 8.5 C 2.5 6.84375 3.84375 5.5 5.5 5.5 Z M 5.5 5.5 "/>
<path style=" stroke:none;fill-rule:nonzero;fill:rgb(77.254902%,14.509804%,15.686275%);fill-opacity:1;" d="M 2.542969 8.066406 C 2.550781 8.003906 2.550781 7.945312 2.566406 7.882812 C 2.582031 7.792969 2.621094 7.707031 2.648438 7.621094 C 2.671875 7.519531 2.707031 7.417969 2.742188 7.320312 C 2.761719 7.273438 2.792969 7.230469 2.816406 7.183594 C 2.878906 7.050781 2.949219 6.921875 3.03125 6.800781 C 3.070312 6.742188 3.121094 6.691406 3.164062 6.636719 C 3.242188 6.539062 3.324219 6.441406 3.410156 6.351562 C 3.476562 6.289062 3.554688 6.234375 3.625 6.175781 C 3.703125 6.109375 3.78125 6.046875 3.867188 5.988281 C 3.945312 5.9375 4.03125 5.898438 4.117188 5.855469 C 4.203125 5.804688 4.292969 5.761719 4.382812 5.71875 C 4.472656 5.683594 4.566406 5.660156 4.660156 5.632812 C 4.753906 5.605469 4.84375 5.574219 4.941406 5.554688 C 5.058594 5.539062 5.175781 5.527344 5.296875 5.519531 C 5.375 5.515625 5.449219 5.5 5.523438 5.503906 C 5.664062 5.507812 5.808594 5.519531 5.945312 5.542969 C 6.003906 5.554688 6.058594 5.550781 6.117188 5.5625 C 6.210938 5.589844 6.308594 5.617188 6.402344 5.652344 C 6.496094 5.679688 6.589844 5.707031 6.679688 5.742188 C 6.730469 5.765625 6.777344 5.796875 6.828125 5.820312 C 6.957031 5.882812 7.082031 5.953125 7.199219 6.03125 C 8.015625 6.589844 8.5 7.511719 8.5 8.5 L 8.5 14.261719 L 3.78125 10.957031 C 2.832031 10.320312 2.347656 9.1875 2.542969 8.066406 Z M 2.542969 8.066406 "/>
</g>
</svg>
