<?xml version="1.0" encoding="UTF-8"?>
<svg xmlns="http://www.w3.org/2000/svg" xmlns:xlink="http://www.w3.org/1999/xlink" width="32px" height="px" viewBox="0 0 32 32" version="1.1">
<defs>
<linearGradient id="linear0" gradientUnits="userSpaceOnUse" x1="256" y1="0" x2="256" y2="510.1322" gradientTransform="matrix(0.0625,0,0,0.0625,0,0)">
<stop offset="0" style="stop-color:rgb(25.490196%,73.72549%,90.588235%);stop-opacity:1;"/>
<stop offset="1" style="stop-color:rgb(13.333333%,65.098039%,86.27451%);stop-opacity:1;"/>
</linearGradient>
</defs>
<g id="surface1">
<path style=" stroke:none;fill-rule:nonzero;fill:url(#linear0);" d="M 32 16 C 32 24.835938 24.835938 32 16 32 C 7.164062 32 0 24.835938 0 16 C 0 7.164062 7.164062 0 16 0 C 24.835938 0 32 7.164062 32 16 Z M 32 16 "/>
<path style=" stroke:none;fill-rule:nonzero;fill:rgb(100%,100%,100%);fill-opacity:1;" d="M 23.789062 9.207031 L 20.929688 23.613281 C 20.929688 23.613281 20.53125 24.613281 19.429688 24.132812 L 12.835938 19.074219 L 10.4375 17.917969 L 6.398438 16.5625 C 6.398438 16.5625 5.78125 16.34375 5.71875 15.863281 C 5.65625 15.382812 6.417969 15.125 6.417969 15.125 L 22.46875 8.832031 C 22.46875 8.824219 23.789062 8.242188 23.789062 9.207031 Z M 23.789062 9.207031 "/>
<path style=" stroke:none;fill-rule:nonzero;fill:rgb(82.352941%,89.411765%,94.117647%);fill-opacity:1;" d="M 12.324219 23.449219 C 12.324219 23.449219 12.132812 23.429688 11.894531 22.675781 C 11.65625 21.917969 10.4375 17.917969 10.4375 17.917969 L 20.132812 11.761719 C 20.132812 11.761719 20.695312 11.425781 20.667969 11.761719 C 20.667969 11.761719 20.769531 11.824219 20.46875 12.101562 C 20.167969 12.382812 12.855469 18.957031 12.855469 18.957031 "/>
<path style=" stroke:none;fill-rule:nonzero;fill:rgb(70.980392%,81.176471%,89.411765%);fill-opacity:1;" d="M 15.363281 21.011719 L 12.757812 23.394531 C 12.757812 23.394531 12.550781 23.550781 12.332031 23.449219 L 12.832031 19.03125 "/>
</g>
</svg>
