<?xml version="1.0" encoding="UTF-8"?>
<svg xmlns="http://www.w3.org/2000/svg" xmlns:xlink="http://www.w3.org/1999/xlink" width="32px" height="px" viewBox="0 0 32 32" version="1.1">
<g id="surface1">
<path style=" stroke:none;fill-rule:nonzero;fill:rgb(30.196078%,46.27451%,63.137255%);fill-opacity:1;" d="M 32 16 C 32 24.835938 24.835938 32 16 32 C 7.164062 32 0 24.835938 0 16 C 0 7.164062 7.164062 0 16 0 C 24.835938 0 32 7.164062 32 16 Z M 32 16 "/>
<path style=" stroke:none;fill-rule:evenodd;fill:rgb(100%,100%,100%);fill-opacity:1;" d="M 15.394531 23.019531 L 16.648438 23.019531 C 16.648438 23.019531 17.03125 22.976562 17.226562 22.769531 C 17.40625 22.574219 17.398438 22.21875 17.398438 22.21875 C 17.398438 22.21875 17.375 20.53125 18.15625 20.289062 C 18.925781 20.042969 19.917969 21.914062 20.96875 22.636719 C 21.761719 23.179688 22.363281 23.0625 22.363281 23.0625 L 25.167969 23.023438 C 25.167969 23.023438 26.636719 22.9375 25.9375 21.78125 C 25.882812 21.6875 25.53125 20.925781 23.851562 19.367188 C 22.09375 17.738281 22.324219 18 24.445312 15.175781 C 25.738281 13.457031 26.25 12.40625 26.085938 11.957031 C 25.929688 11.523438 24.988281 11.644531 24.988281 11.644531 L 21.824219 11.664062 C 21.824219 11.664062 21.59375 11.632812 21.417969 11.730469 C 21.25 11.832031 21.136719 12.070312 21.136719 12.070312 C 21.136719 12.070312 20.636719 13.398438 19.96875 14.53125 C 18.5625 16.917969 18 17.042969 17.769531 16.898438 C 17.230469 16.550781 17.367188 15.511719 17.367188 14.769531 C 17.367188 12.457031 17.71875 11.488281 16.6875 11.238281 C 16.34375 11.15625 16.09375 11.101562 15.210938 11.09375 C 14.085938 11.082031 13.132812 11.09375 12.585938 11.363281 C 12.230469 11.539062 11.949219 11.929688 12.117188 11.949219 C 12.324219 11.976562 12.800781 12.082031 13.050781 12.417969 C 13.375 12.855469 13.363281 13.851562 13.363281 13.851562 C 13.363281 13.851562 13.550781 16.574219 12.925781 16.914062 C 12.5 17.144531 11.914062 16.667969 10.664062 14.507812 C 10.019531 13.394531 9.539062 12.167969 9.539062 12.167969 C 9.539062 12.167969 9.445312 11.9375 9.273438 11.820312 C 9.070312 11.667969 8.789062 11.625 8.789062 11.625 L 5.789062 11.644531 C 5.789062 11.644531 5.335938 11.65625 5.167969 11.851562 C 5.023438 12.023438 5.15625 12.386719 5.15625 12.386719 C 5.15625 12.386719 7.507812 17.886719 10.167969 20.65625 C 12.625 23.1875 15.394531 23.019531 15.394531 23.019531 Z M 15.394531 23.019531 "/>
</g>
</svg>
