<?xml version="1.0" encoding="UTF-8"?>
<svg xmlns="http://www.w3.org/2000/svg" xmlns:xlink="http://www.w3.org/1999/xlink" width="32px" height="32px" viewBox="0 0 32 32" version="1.1">
<g id="surface1">
<path style=" stroke:none;fill-rule:evenodd;fill:rgb(0%,0%,0%);fill-opacity:1;" d="M 16 2 C 8.269531 2 2 8.425781 2 16.355469 C 2 22.699219 6.011719 28.074219 11.574219 29.976562 C 12.273438 30.105469 12.53125 29.664062 12.53125 29.28125 C 12.53125 28.9375 12.519531 28.039062 12.511719 26.835938 C 8.617188 27.707031 7.792969 24.914062 7.792969 24.914062 C 7.15625 23.257812 6.238281 22.8125 6.238281 22.8125 C 4.96875 21.917969 6.332031 21.9375 6.332031 21.9375 C 7.738281 22.039062 8.476562 23.417969 8.476562 23.417969 C 9.726562 25.613281 11.75 24.980469 12.550781 24.613281 C 12.675781 23.6875 13.039062 23.050781 13.4375 22.695312 C 10.332031 22.332031 7.0625 21.101562 7.0625 15.601562 C 7.0625 14.03125 7.605469 12.75 8.5 11.75 C 8.355469 11.386719 7.875 9.925781 8.636719 7.949219 C 8.636719 7.949219 9.8125 7.5625 12.488281 9.417969 C 13.605469 9.101562 14.800781 8.945312 15.992188 8.9375 C 17.179688 8.945312 18.382812 9.101562 19.5 9.417969 C 22.175781 7.5625 23.34375 7.949219 23.34375 7.949219 C 24.105469 9.925781 23.625 11.386719 23.480469 11.75 C 24.375 12.757812 24.917969 14.039062 24.917969 15.601562 C 24.917969 21.113281 21.644531 22.324219 18.523438 22.679688 C 19.023438 23.125 19.476562 24 19.476562 25.335938 C 19.476562 27.257812 19.457031 28.804688 19.457031 29.273438 C 19.457031 29.65625 19.707031 30.105469 20.417969 29.960938 C 25.992188 28.070312 30 22.695312 30 16.355469 C 30 8.425781 23.730469 2 16 2 Z M 16 2 "/>
</g>
</svg>
