<?xml version="1.0" encoding="UTF-8"?>
<svg xmlns="http://www.w3.org/2000/svg" xmlns:xlink="http://www.w3.org/1999/xlink" width="64px" height="px" viewBox="0 0 64 40" version="1.1">
<defs>
<linearGradient id="linear0" gradientUnits="userSpaceOnUse" x1="187.702" y1="199.2852" x2="149.6371" y2="121.6329" gradientTransform="matrix(0.140351,0,0,-0.140845,0,40.578873)">
<stop offset="0" style="stop-color:rgb(25.490196%,52.941176%,24.705882%);stop-opacity:1;"/>
<stop offset="0.3288" style="stop-color:rgb(25.490196%,54.509804%,23.921569%);stop-opacity:1;"/>
<stop offset="0.6352" style="stop-color:rgb(25.490196%,58.823529%,21.568627%);stop-opacity:1;"/>
<stop offset="0.9319" style="stop-color:rgb(24.705882%,66.27451%,17.647059%);stop-opacity:1;"/>
<stop offset="1" style="stop-color:rgb(24.705882%,68.235294%,16.470588%);stop-opacity:1;"/>
</linearGradient>
<clipPath id="clip1">
  <path d="M 17 9 L 31 9 L 31 26 L 17 26 Z M 17 9 "/>
</clipPath>
<clipPath id="clip2">
  <path d="M 24.296875 9.960938 C 24.078125 9.832031 23.804688 9.832031 23.582031 9.960938 L 17.671875 13.382812 C 17.449219 13.511719 17.3125 13.75 17.3125 14.003906 L 17.3125 20.859375 C 17.3125 21.117188 17.449219 21.351562 17.667969 21.480469 L 23.582031 24.90625 C 23.804688 25.035156 24.078125 25.035156 24.296875 24.90625 L 30.210938 21.480469 C 30.429688 21.351562 30.566406 21.117188 30.566406 20.859375 L 30.566406 14.003906 C 30.566406 13.75 30.429688 13.511719 30.210938 13.382812 Z M 24.296875 9.960938 "/>
</clipPath>
<linearGradient id="linear1" gradientUnits="userSpaceOnUse" x1="164.1574" y1="158.647" x2="270.9646" y2="237.5619" gradientTransform="matrix(0.140351,0,0,-0.140845,0,40.578873)">
<stop offset="0.1376" style="stop-color:rgb(25.490196%,52.941176%,24.705882%);stop-opacity:1;"/>
<stop offset="0.4032" style="stop-color:rgb(32.941176%,62.745098%,26.666667%);stop-opacity:1;"/>
<stop offset="0.7136" style="stop-color:rgb(40%,72.156863%,28.235294%);stop-opacity:1;"/>
<stop offset="0.9081" style="stop-color:rgb(42.352941%,75.294118%,29.019608%);stop-opacity:1;"/>
</linearGradient>
<clipPath id="clip3">
  <path d="M 17 9 L 31 9 L 31 25 L 17 25 Z M 17 9 "/>
</clipPath>
<clipPath id="clip4">
  <path d="M 24.296875 9.960938 C 24.078125 9.832031 23.804688 9.832031 23.582031 9.960938 L 17.671875 13.382812 C 17.449219 13.511719 17.3125 13.75 17.3125 14.003906 L 17.3125 20.859375 C 17.3125 21.117188 17.449219 21.351562 17.667969 21.480469 L 23.582031 24.90625 C 23.804688 25.035156 24.078125 25.035156 24.296875 24.90625 L 30.210938 21.480469 C 30.429688 21.351562 30.566406 21.117188 30.566406 20.859375 L 30.566406 14.003906 C 30.566406 13.75 30.429688 13.511719 30.210938 13.382812 Z M 24.296875 9.960938 "/>
</clipPath>
<linearGradient id="linear2" gradientUnits="userSpaceOnUse" x1="121.8623" y1="164.3476" x2="219.2793" y2="164.3476" gradientTransform="matrix(0.140351,0,0,-0.140845,0,40.578873)">
<stop offset="0.0919" style="stop-color:rgb(42.352941%,75.294118%,29.019608%);stop-opacity:1;"/>
<stop offset="0.2864" style="stop-color:rgb(40%,72.156863%,28.235294%);stop-opacity:1;"/>
<stop offset="0.5968" style="stop-color:rgb(32.941176%,62.745098%,26.666667%);stop-opacity:1;"/>
<stop offset="0.8624" style="stop-color:rgb(25.490196%,52.941176%,24.705882%);stop-opacity:1;"/>
</linearGradient>
<clipPath id="clip5">
  <path d="M 30 21 L 31 21 L 31 22 L 30 22 Z M 30 21 "/>
</clipPath>
<clipPath id="clip6">
  <path d="M 24.296875 9.960938 C 24.078125 9.832031 23.804688 9.832031 23.582031 9.960938 L 17.671875 13.382812 C 17.449219 13.511719 17.3125 13.75 17.3125 14.003906 L 17.3125 20.859375 C 17.3125 21.117188 17.449219 21.351562 17.667969 21.480469 L 23.582031 24.90625 C 23.804688 25.035156 24.078125 25.035156 24.296875 24.90625 L 30.210938 21.480469 C 30.429688 21.351562 30.566406 21.117188 30.566406 20.859375 L 30.566406 14.003906 C 30.566406 13.75 30.429688 13.511719 30.210938 13.382812 Z M 24.296875 9.960938 "/>
</clipPath>
<linearGradient id="linear3" gradientUnits="userSpaceOnUse" x1="121.8623" y1="136.5375" x2="219.2793" y2="136.5375" gradientTransform="matrix(0.140351,0,0,-0.140845,0,40.578873)">
<stop offset="0.0919" style="stop-color:rgb(42.352941%,75.294118%,29.019608%);stop-opacity:1;"/>
<stop offset="0.2864" style="stop-color:rgb(40%,72.156863%,28.235294%);stop-opacity:1;"/>
<stop offset="0.5968" style="stop-color:rgb(32.941176%,62.745098%,26.666667%);stop-opacity:1;"/>
<stop offset="0.8624" style="stop-color:rgb(25.490196%,52.941176%,24.705882%);stop-opacity:1;"/>
</linearGradient>
<clipPath id="clip7">
  <path d="M 24 21 L 31 21 L 31 26 L 24 26 Z M 24 21 "/>
</clipPath>
<clipPath id="clip8">
  <path d="M 24.296875 9.960938 C 24.078125 9.832031 23.804688 9.832031 23.582031 9.960938 L 17.671875 13.382812 C 17.449219 13.511719 17.3125 13.75 17.3125 14.003906 L 17.3125 20.859375 C 17.3125 21.117188 17.449219 21.351562 17.667969 21.480469 L 23.582031 24.90625 C 23.804688 25.035156 24.078125 25.035156 24.296875 24.90625 L 30.210938 21.480469 C 30.429688 21.351562 30.566406 21.117188 30.566406 20.859375 L 30.566406 14.003906 C 30.566406 13.75 30.429688 13.511719 30.210938 13.382812 Z M 24.296875 9.960938 "/>
</clipPath>
<linearGradient id="linear4" gradientUnits="userSpaceOnUse" x1="121.8623" y1="123.968" x2="219.2793" y2="123.968" gradientTransform="matrix(0.140351,0,0,-0.140845,0,40.578873)">
<stop offset="0.0919" style="stop-color:rgb(42.352941%,75.294118%,29.019608%);stop-opacity:1;"/>
<stop offset="0.2864" style="stop-color:rgb(40%,72.156863%,28.235294%);stop-opacity:1;"/>
<stop offset="0.5968" style="stop-color:rgb(32.941176%,62.745098%,26.666667%);stop-opacity:1;"/>
<stop offset="0.8624" style="stop-color:rgb(25.490196%,52.941176%,24.705882%);stop-opacity:1;"/>
</linearGradient>
<linearGradient id="linear5" gradientUnits="userSpaceOnUse" x1="233.4718" y1="201.5876" x2="173.3912" y2="79.0232" gradientTransform="matrix(0.140351,0,0,-0.140845,0,40.578873)">
<stop offset="0" style="stop-color:rgb(25.490196%,52.941176%,24.705882%);stop-opacity:1;"/>
<stop offset="0.3288" style="stop-color:rgb(25.490196%,54.509804%,23.921569%);stop-opacity:1;"/>
<stop offset="0.6352" style="stop-color:rgb(25.490196%,58.823529%,21.568627%);stop-opacity:1;"/>
<stop offset="0.9319" style="stop-color:rgb(24.705882%,66.27451%,17.647059%);stop-opacity:1;"/>
<stop offset="1" style="stop-color:rgb(24.705882%,68.235294%,16.470588%);stop-opacity:1;"/>
</linearGradient>
</defs>
<g id="surface1">
<path style=" stroke:none;fill-rule:nonzero;fill:rgb(41.176471%,62.352941%,38.823529%);fill-opacity:1;" d="M 31.710938 39.304688 C 31.507812 39.304688 31.304688 39.25 31.125 39.144531 L 29.253906 38.035156 C 28.972656 37.875 29.109375 37.820312 29.203125 37.789062 C 29.574219 37.660156 29.648438 37.628906 30.046875 37.402344 C 30.089844 37.378906 30.144531 37.386719 30.1875 37.414062 L 31.625 38.269531 C 31.679688 38.300781 31.75 38.300781 31.800781 38.269531 L 37.40625 35.023438 C 37.457031 34.992188 37.492188 34.933594 37.492188 34.871094 L 37.492188 28.378906 C 37.492188 28.3125 37.457031 28.253906 37.40625 28.222656 L 31.800781 24.976562 C 31.75 24.945312 31.679688 24.945312 31.628906 24.976562 L 26.023438 28.222656 C 25.96875 28.253906 25.933594 28.316406 25.933594 28.378906 L 25.933594 34.871094 C 25.933594 34.933594 25.96875 34.992188 26.023438 35.019531 L 27.558594 35.910156 C 28.394531 36.328125 28.902344 35.835938 28.902344 35.34375 L 28.902344 28.929688 C 28.902344 28.839844 28.976562 28.769531 29.066406 28.769531 L 29.777344 28.769531 C 29.867188 28.769531 29.941406 28.839844 29.941406 28.929688 L 29.941406 35.34375 C 29.941406 36.457031 29.332031 37.097656 28.28125 37.097656 C 27.957031 37.097656 27.699219 37.097656 26.988281 36.746094 L 25.519531 35.898438 C 25.15625 35.6875 24.929688 35.292969 24.929688 34.871094 L 24.929688 28.378906 C 24.929688 27.957031 25.15625 27.5625 25.519531 27.351562 L 31.125 24.101562 C 31.480469 23.898438 31.949219 23.898438 32.304688 24.101562 L 37.910156 27.351562 C 38.273438 27.5625 38.5 27.957031 38.5 28.378906 L 38.5 34.871094 C 38.5 35.292969 38.273438 35.683594 37.910156 35.898438 L 32.304688 39.144531 C 32.125 39.25 31.921875 39.304688 31.710938 39.304688 Z M 31.710938 39.304688 "/>
<path style=" stroke:none;fill-rule:nonzero;fill:rgb(41.176471%,62.352941%,38.823529%);fill-opacity:1;" d="M 33.445312 34.828125 C 30.992188 34.828125 30.476562 33.699219 30.476562 32.75 C 30.476562 32.660156 30.550781 32.589844 30.640625 32.589844 L 31.363281 32.589844 C 31.445312 32.589844 31.511719 32.648438 31.523438 32.726562 C 31.632812 33.46875 31.960938 33.84375 33.445312 33.84375 C 34.625 33.84375 35.128906 33.574219 35.128906 32.945312 C 35.128906 32.582031 34.988281 32.3125 33.152344 32.132812 C 31.617188 31.980469 30.667969 31.640625 30.667969 30.410156 C 30.667969 29.273438 31.621094 28.597656 33.21875 28.597656 C 35.015625 28.597656 35.90625 29.222656 36.019531 30.5625 C 36.023438 30.609375 36.003906 30.65625 35.976562 30.6875 C 35.945312 30.722656 35.902344 30.742188 35.855469 30.742188 L 35.128906 30.742188 C 35.054688 30.742188 34.988281 30.6875 34.972656 30.613281 C 34.796875 29.835938 34.371094 29.585938 33.21875 29.585938 C 31.929688 29.585938 31.78125 30.035156 31.78125 30.375 C 31.78125 30.785156 31.957031 30.902344 33.699219 31.132812 C 35.421875 31.363281 36.242188 31.6875 36.242188 32.902344 C 36.238281 34.128906 35.222656 34.828125 33.445312 34.828125 Z M 33.445312 34.828125 "/>
<path style=" stroke:none;fill-rule:nonzero;fill:rgb(41.176471%,62.352941%,38.823529%);fill-opacity:1;" d="M 41.53125 28.019531 C 41.53125 28.617188 41.042969 29.105469 40.449219 29.105469 C 39.859375 29.105469 39.367188 28.621094 39.367188 28.019531 C 39.367188 27.40625 39.871094 26.933594 40.449219 26.933594 C 41.03125 26.933594 41.53125 27.40625 41.53125 28.019531 Z M 39.542969 28.015625 C 39.542969 28.523438 39.949219 28.929688 40.445312 28.929688 C 40.949219 28.929688 41.355469 28.511719 41.355469 28.015625 C 41.355469 27.511719 40.945312 27.109375 40.445312 27.109375 C 39.953125 27.109375 39.542969 27.507812 39.542969 28.015625 Z M 40.042969 27.410156 L 40.460938 27.410156 C 40.605469 27.410156 40.882812 27.410156 40.882812 27.734375 C 40.882812 27.957031 40.742188 28.003906 40.65625 28.03125 C 40.820312 28.042969 40.832031 28.152344 40.855469 28.308594 C 40.867188 28.402344 40.882812 28.570312 40.917969 28.628906 L 40.660156 28.628906 C 40.65625 28.570312 40.613281 28.261719 40.613281 28.242188 C 40.597656 28.175781 40.574219 28.140625 40.488281 28.140625 L 40.277344 28.140625 L 40.277344 28.628906 L 40.042969 28.628906 Z M 40.273438 27.945312 L 40.460938 27.945312 C 40.613281 27.945312 40.644531 27.835938 40.644531 27.773438 C 40.644531 27.605469 40.527344 27.605469 40.464844 27.605469 L 40.273438 27.605469 Z M 40.273438 27.945312 "/>
<path style=" stroke:none;fill-rule:nonzero;fill:rgb(20%,20%,20%);fill-opacity:1;" d="M 14.351562 13.898438 C 14.351562 13.640625 14.214844 13.402344 13.992188 13.273438 L 8.046875 9.839844 C 7.945312 9.78125 7.832031 9.75 7.71875 9.742188 C 7.707031 9.742188 7.664062 9.742188 7.65625 9.742188 C 7.542969 9.75 7.429688 9.78125 7.328125 9.839844 L 1.382812 13.273438 C 1.164062 13.402344 1.023438 13.640625 1.023438 13.898438 L 1.039062 23.140625 C 1.039062 23.269531 1.105469 23.390625 1.21875 23.453125 C 1.328125 23.519531 1.464844 23.519531 1.574219 23.453125 L 5.105469 21.421875 C 5.332031 21.289062 5.464844 21.054688 5.464844 20.796875 L 5.464844 16.480469 C 5.464844 16.222656 5.601562 15.984375 5.824219 15.855469 L 7.328125 14.988281 C 7.441406 14.921875 7.5625 14.890625 7.6875 14.890625 C 7.8125 14.890625 7.9375 14.921875 8.046875 14.988281 L 9.550781 15.855469 C 9.773438 15.984375 9.910156 16.222656 9.910156 16.480469 L 9.910156 20.796875 C 9.910156 21.054688 10.046875 21.292969 10.269531 21.421875 L 13.800781 23.453125 C 13.910156 23.519531 14.050781 23.519531 14.160156 23.453125 C 14.269531 23.390625 14.339844 23.269531 14.339844 23.140625 Z M 14.351562 13.898438 "/>
<path style=" stroke:none;fill-rule:nonzero;fill:rgb(20%,20%,20%);fill-opacity:1;" d="M 42.953125 1.191406 C 42.839844 1.128906 42.707031 1.128906 42.597656 1.195312 C 42.488281 1.257812 42.417969 1.378906 42.417969 1.503906 L 42.417969 10.660156 C 42.417969 10.75 42.371094 10.832031 42.292969 10.878906 C 42.214844 10.921875 42.121094 10.921875 42.042969 10.878906 L 40.554688 10.015625 C 40.332031 9.890625 40.058594 9.890625 39.835938 10.019531 L 33.890625 13.460938 C 33.667969 13.589844 33.53125 13.828125 33.53125 14.085938 L 33.53125 20.976562 C 33.53125 21.234375 33.667969 21.46875 33.886719 21.597656 L 39.835938 25.046875 C 40.058594 25.175781 40.332031 25.175781 40.554688 25.046875 L 46.5 21.597656 C 46.722656 21.472656 46.859375 21.234375 46.859375 20.976562 L 46.859375 3.800781 C 46.859375 3.539062 46.71875 3.300781 46.492188 3.171875 Z M 42.402344 18.710938 C 42.402344 18.777344 42.367188 18.835938 42.3125 18.867188 L 40.269531 20.046875 C 40.214844 20.082031 40.144531 20.082031 40.089844 20.046875 L 38.046875 18.867188 C 37.992188 18.835938 37.957031 18.777344 37.957031 18.710938 L 37.957031 16.34375 C 37.957031 16.28125 37.992188 16.222656 38.046875 16.191406 L 40.089844 15.007812 C 40.144531 14.972656 40.214844 14.972656 40.269531 15.007812 L 42.3125 16.191406 C 42.367188 16.222656 42.402344 16.28125 42.402344 16.34375 Z M 42.402344 18.710938 "/>
<path style=" stroke:none;fill-rule:nonzero;fill:rgb(20%,20%,20%);fill-opacity:1;" d="M 62.753906 16.285156 C 62.976562 16.15625 63.113281 15.917969 63.113281 15.660156 L 63.113281 13.992188 C 63.113281 13.734375 62.976562 13.496094 62.753906 13.367188 L 56.847656 9.925781 C 56.625 9.796875 56.347656 9.796875 56.125 9.925781 L 50.183594 13.367188 C 49.960938 13.496094 49.824219 13.734375 49.824219 13.992188 L 49.824219 20.878906 C 49.824219 21.140625 49.960938 21.378906 50.1875 21.507812 L 56.09375 24.882812 C 56.3125 25.007812 56.578125 25.011719 56.796875 24.886719 L 60.371094 22.894531 C 60.484375 22.832031 60.554688 22.710938 60.554688 22.582031 C 60.554688 22.453125 60.488281 22.332031 60.375 22.269531 L 54.394531 18.820312 C 54.28125 18.757812 54.210938 18.636719 54.210938 18.507812 L 54.210938 16.351562 C 54.210938 16.222656 54.28125 16.101562 54.390625 16.039062 L 56.253906 14.960938 C 56.363281 14.898438 56.5 14.898438 56.613281 14.960938 L 58.476562 16.039062 C 58.585938 16.101562 58.65625 16.222656 58.65625 16.351562 L 58.65625 18.050781 C 58.65625 18.179688 58.722656 18.296875 58.835938 18.359375 C 58.945312 18.425781 59.082031 18.425781 59.195312 18.359375 Z M 62.753906 16.285156 "/>
<path style=" stroke:none;fill-rule:nonzero;fill:rgb(41.176471%,62.352941%,38.823529%);fill-opacity:1;" d="M 56.398438 15.960938 C 56.441406 15.9375 56.492188 15.9375 56.535156 15.960938 L 57.679688 16.621094 C 57.71875 16.644531 57.746094 16.691406 57.746094 16.742188 L 57.746094 18.0625 C 57.746094 18.113281 57.71875 18.160156 57.679688 18.183594 L 56.535156 18.84375 C 56.492188 18.867188 56.441406 18.867188 56.398438 18.84375 L 55.257812 18.183594 C 55.214844 18.160156 55.191406 18.113281 55.191406 18.0625 L 55.191406 16.742188 C 55.191406 16.691406 55.214844 16.644531 55.257812 16.621094 Z M 56.398438 15.960938 "/>
<path style=" stroke:none;fill-rule:nonzero;fill:url(#linear0);" d="M 24.296875 9.960938 C 24.078125 9.832031 23.804688 9.832031 23.582031 9.960938 L 17.671875 13.382812 C 17.449219 13.511719 17.3125 13.75 17.3125 14.003906 L 17.3125 20.859375 C 17.3125 21.117188 17.449219 21.351562 17.667969 21.480469 L 23.582031 24.90625 C 23.804688 25.035156 24.078125 25.035156 24.296875 24.90625 L 30.210938 21.480469 C 30.429688 21.351562 30.566406 21.117188 30.566406 20.859375 L 30.566406 14.003906 C 30.566406 13.75 30.429688 13.511719 30.210938 13.382812 Z M 24.296875 9.960938 "/>
<g clip-path="url(#clip1)" clip-rule="nonzero">
<g clip-path="url(#clip2)" clip-rule="nonzero">
<path style=" stroke:none;fill-rule:nonzero;fill:url(#linear1);" d="M 30.222656 13.382812 L 24.292969 9.960938 C 24.234375 9.925781 24.171875 9.902344 24.105469 9.886719 L 17.449219 21.316406 C 17.503906 21.378906 17.570312 21.4375 17.648438 21.480469 L 23.585938 24.90625 C 23.753906 25.003906 23.957031 25.027344 24.136719 24.976562 L 30.378906 13.507812 C 30.332031 13.460938 30.28125 13.417969 30.222656 13.382812 Z M 30.222656 13.382812 "/>
</g>
</g>
<g clip-path="url(#clip3)" clip-rule="nonzero">
<g clip-path="url(#clip4)" clip-rule="nonzero">
<path style=" stroke:none;fill-rule:nonzero;fill:url(#linear2);" d="M 30.226562 21.480469 C 30.398438 21.378906 30.527344 21.214844 30.574219 21.023438 L 24.074219 9.878906 C 23.902344 9.847656 23.722656 9.871094 23.570312 9.960938 L 17.679688 13.363281 L 24.042969 24.996094 C 24.132812 24.984375 24.222656 24.957031 24.304688 24.90625 Z M 30.226562 21.480469 "/>
</g>
</g>
<g clip-path="url(#clip5)" clip-rule="nonzero">
<g clip-path="url(#clip6)" clip-rule="nonzero">
<path style=" stroke:none;fill-rule:nonzero;fill:url(#linear3);" d="M 30.777344 21.371094 L 30.738281 21.304688 L 30.738281 21.394531 Z M 30.777344 21.371094 "/>
</g>
</g>
<g clip-path="url(#clip7)" clip-rule="nonzero">
<g clip-path="url(#clip8)" clip-rule="nonzero">
<path style=" stroke:none;fill-rule:nonzero;fill:url(#linear4);" d="M 30.226562 21.480469 L 24.304688 24.90625 C 24.222656 24.957031 24.132812 24.984375 24.042969 24.996094 L 24.160156 25.210938 L 30.738281 21.394531 L 30.738281 21.304688 L 30.574219 21.023438 C 30.527344 21.214844 30.398438 21.378906 30.226562 21.480469 Z M 30.226562 21.480469 "/>
<path style=" stroke:none;fill-rule:nonzero;fill:url(#linear5);" d="M 30.226562 21.480469 L 24.304688 24.90625 C 24.222656 24.957031 24.132812 24.984375 24.042969 24.996094 L 24.160156 25.210938 L 30.738281 21.394531 L 30.738281 21.304688 L 30.574219 21.023438 C 30.527344 21.214844 30.398438 21.378906 30.226562 21.480469 Z M 30.226562 21.480469 "/>
</g>
</g>
</g>
</svg>
