<?xml version="1.0" encoding="UTF-8"?>
<svg xmlns="http://www.w3.org/2000/svg" xmlns:xlink="http://www.w3.org/1999/xlink" width="64px" height="px" viewBox="0 0 64 64" version="1.1">
<g id="surface1">
<path style=" stroke:none;fill-rule:nonzero;fill:rgb(49,97,146);fill-opacity:1;" d="M 45.675781 0 C 43.1875 0.0195312 40.714844 0.378906 38.328125 1.074219 L 38.160156 1.128906 C 36.652344 0.863281 35.128906 0.714844 33.601562 0.6875 C 30.457031 0.632812 27.761719 1.398438 25.585938 2.667969 C 23.441406 1.921875 18.992188 0.640625 14.304688 0.894531 C 11.039062 1.074219 7.476562 2.066406 4.835938 4.851562 C 2.207031 7.640625 0.8125 11.953125 1.105469 17.820312 C 1.1875 19.4375 1.648438 22.078125 2.414062 25.496094 C 3.179688 28.914062 4.253906 32.917969 5.59375 36.566406 C 6.9375 40.222656 8.40625 43.5 10.703125 45.730469 C 11.847656 46.847656 13.425781 47.785156 15.289062 47.710938 C 16.59375 47.65625 17.777344 47.082031 18.792969 46.238281 C 19.289062 46.890625 19.820312 47.175781 20.304688 47.441406 C 20.910156 47.773438 21.503906 48 22.117188 48.148438 C 23.21875 48.425781 25.105469 48.792969 27.3125 48.414062 C 28.0625 48.289062 28.855469 48.046875 29.644531 47.695312 C 29.675781 48.574219 29.710938 49.4375 29.742188 50.308594 C 29.851562 53.070312 29.921875 55.625 30.753906 57.863281 C 30.886719 58.226562 31.25 60.109375 32.691406 61.769531 C 34.128906 63.433594 36.953125 64.472656 40.164062 63.785156 C 42.433594 63.296875 45.316406 62.425781 47.230469 59.699219 C 49.121094 57.003906 49.976562 53.140625 50.144531 46.875 C 50.1875 46.535156 50.238281 46.246094 50.289062 45.980469 L 50.742188 46.019531 L 50.792969 46.019531 C 53.214844 46.128906 55.835938 45.785156 58.03125 44.765625 C 59.96875 43.867188 61.441406 42.957031 62.507812 41.34375 C 62.777344 40.945312 63.070312 40.460938 63.148438 39.628906 C 63.230469 38.796875 62.753906 37.496094 61.960938 36.894531 C 60.375 35.691406 59.375 36.148438 58.308594 36.371094 C 57.253906 36.605469 56.179688 36.734375 55.101562 36.761719 C 58.183594 31.566406 60.394531 26.054688 61.65625 21.171875 C 62.402344 18.292969 62.820312 15.636719 62.855469 13.316406 C 62.890625 10.992188 62.703125 8.9375 61.308594 7.15625 C 56.960938 1.601562 50.84375 0.0625 46.113281 0.0117188 C 45.96875 0.0078125 45.820312 0.00390625 45.675781 0.0078125 Z M 45.550781 1.707031 C 50.023438 1.664062 55.742188 2.921875 59.84375 8.164062 C 60.769531 9.34375 61.042969 11.066406 61.011719 13.1875 C 60.976562 15.308594 60.585938 17.847656 59.867188 20.628906 C 58.476562 26.015625 55.84375 32.296875 52.140625 37.929688 C 52.273438 38.023438 52.414062 38.101562 52.5625 38.160156 C 53.335938 38.480469 55.097656 38.753906 58.617188 38.03125 C 59.5 37.84375 60.148438 37.71875 60.820312 38.230469 C 61.152344 38.511719 61.332031 38.933594 61.308594 39.367188 C 61.273438 39.6875 61.152344 39.996094 60.960938 40.261719 C 60.28125 41.28125 58.941406 42.25 57.222656 43.046875 C 55.699219 43.757812 53.515625 44.128906 51.578125 44.148438 C 50.609375 44.160156 49.710938 44.085938 48.953125 43.847656 L 48.902344 43.828125 C 48.609375 46.65625 47.9375 52.238281 47.496094 54.785156 C 47.144531 56.835938 46.527344 58.46875 45.351562 59.691406 C 44.179688 60.910156 42.515625 61.648438 40.28125 62.128906 C 37.515625 62.722656 35.496094 62.082031 34.195312 60.988281 C 32.894531 59.894531 32.300781 58.441406 31.945312 57.554688 C 31.699219 56.941406 31.570312 56.148438 31.449219 55.085938 C 31.324219 54.023438 31.234375 52.726562 31.171875 51.261719 C 31.089844 49.019531 31.066406 46.777344 31.09375 44.535156 C 29.9375 45.59375 28.5 46.296875 26.953125 46.558594 C 25.117188 46.871094 23.476562 46.566406 22.5 46.320312 C 22.015625 46.199219 21.550781 46.019531 21.113281 45.785156 C 20.660156 45.542969 20.226562 45.265625 19.9375 44.726562 C 19.769531 44.414062 19.714844 44.054688 19.785156 43.710938 C 19.875 43.359375 20.082031 43.046875 20.367188 42.828125 C 20.894531 42.398438 21.59375 42.15625 22.648438 41.9375 C 24.566406 41.542969 25.234375 41.273438 25.644531 40.953125 C 25.988281 40.675781 26.382812 40.113281 27.074219 39.292969 C 27.070312 39.257812 27.070312 39.21875 27.066406 39.183594 C 25.824219 39.148438 24.609375 38.820312 23.519531 38.230469 C 23.121094 38.652344 21.078125 40.8125 18.585938 43.808594 C 17.539062 45.0625 16.382812 45.78125 15.160156 45.832031 C 13.9375 45.886719 12.835938 45.269531 11.894531 44.359375 C 10.019531 42.539062 8.523438 39.40625 7.222656 35.863281 C 5.921875 32.324219 4.863281 28.378906 4.109375 25.019531 C 3.355469 21.660156 2.910156 18.949219 2.84375 17.644531 C 2.566406 12.089844 3.863281 8.347656 6.089844 5.988281 C 8.320312 3.628906 11.375 2.734375 14.355469 2.566406 C 19.703125 2.257812 24.777344 4.121094 25.804688 4.523438 C 27.785156 3.179688 30.332031 2.339844 33.515625 2.394531 C 35.027344 2.414062 36.53125 2.609375 38 2.976562 L 38.054688 2.953125 C 38.699219 2.726562 39.355469 2.535156 40.023438 2.382812 C 41.835938 1.957031 43.6875 1.734375 45.546875 1.710938 Z M 45.953125 3.492188 L 45.566406 3.492188 C 44.039062 3.515625 42.515625 3.6875 41.019531 4.003906 C 44.34375 5.476562 46.851562 7.742188 48.621094 10.003906 C 49.847656 11.570312 50.863281 13.292969 51.640625 15.125 C 51.933594 15.828125 52.128906 16.425781 52.242188 16.886719 C 52.296875 17.117188 52.335938 17.3125 52.347656 17.515625 C 52.355469 17.617188 52.359375 17.71875 52.316406 17.898438 C 52.316406 17.90625 52.304688 17.925781 52.300781 17.933594 C 52.382812 20.269531 51.800781 21.851562 51.734375 24.082031 C 51.679688 25.699219 52.09375 27.597656 52.195312 29.667969 C 52.289062 31.617188 52.054688 33.753906 50.792969 35.851562 C 50.898438 35.980469 50.996094 36.109375 51.097656 36.238281 C 54.441406 30.96875 56.851562 25.144531 58.136719 20.175781 C 58.824219 17.5 59.1875 15.078125 59.222656 13.15625 C 59.246094 11.238281 58.890625 9.84375 58.433594 9.265625 C 54.855469 4.6875 50.011719 3.523438 45.953125 3.492188 Z M 33.179688 4.175781 C 30.03125 4.183594 27.769531 5.136719 26.054688 6.5625 C 24.285156 8.039062 23.097656 10.054688 22.320312 12.121094 C 21.394531 14.574219 21.078125 16.949219 20.953125 18.558594 L 20.988281 18.539062 C 21.9375 18.003906 23.1875 17.472656 24.527344 17.164062 C 25.867188 16.855469 27.308594 16.761719 28.617188 17.265625 C 29.921875 17.773438 31.003906 18.964844 31.394531 20.773438 C 33.273438 29.457031 30.8125 32.6875 29.902344 35.125 C 29.558594 36.007812 29.265625 36.910156 29.019531 37.828125 C 29.136719 37.800781 29.25 37.769531 29.367188 37.757812 C 30.003906 37.703125 30.507812 37.917969 30.804688 38.046875 C 31.71875 38.425781 32.34375 39.21875 32.683594 40.125 C 32.769531 40.363281 32.835938 40.617188 32.871094 40.882812 C 32.910156 40.992188 32.929688 41.105469 32.925781 41.222656 C 32.824219 44.542969 32.835938 47.867188 32.960938 51.1875 C 33.019531 52.625 33.113281 53.886719 33.226562 54.886719 C 33.339844 55.878906 33.503906 56.636719 33.609375 56.894531 C 33.949219 57.746094 34.449219 58.863281 35.347656 59.625 C 36.25 60.382812 37.542969 60.886719 39.90625 60.382812 C 41.953125 59.941406 43.21875 59.332031 44.0625 58.453125 C 44.90625 57.574219 45.410156 56.355469 45.734375 54.484375 C 46.214844 51.683594 47.1875 43.566406 47.304688 42.039062 C 47.25 40.886719 47.421875 40 47.789062 39.324219 C 48.167969 38.632812 48.753906 38.207031 49.261719 37.980469 C 49.515625 37.863281 49.753906 37.785156 49.945312 37.730469 C 49.742188 37.433594 49.523438 37.144531 49.296875 36.863281 C 48.566406 35.976562 47.96875 34.992188 47.523438 33.933594 C 47.308594 33.496094 47.078125 33.066406 46.835938 32.644531 C 46.484375 32.003906 46.035156 31.207031 45.566406 30.308594 C 44.625 28.507812 43.605469 26.324219 43.074219 24.199219 C 42.546875 22.078125 42.46875 19.878906 43.824219 18.332031 C 45.023438 16.953125 47.128906 16.382812 50.292969 16.703125 C 50.199219 16.425781 50.144531 16.191406 49.988281 15.820312 C 49.273438 14.136719 48.339844 12.554688 47.210938 11.113281 C 44.53125 7.6875 40.191406 4.289062 33.488281 4.179688 L 33.179688 4.179688 Z M 15.46875 4.316406 C 15.128906 4.316406 14.792969 4.324219 14.457031 4.34375 C 11.761719 4.5 9.214844 5.28125 7.394531 7.210938 C 5.570312 9.140625 4.371094 12.308594 4.632812 17.546875 C 4.683594 18.539062 5.113281 21.316406 5.855469 24.617188 C 6.59375 27.921875 7.644531 31.804688 8.902344 35.238281 C 10.164062 38.667969 11.691406 41.65625 13.140625 43.070312 C 13.871094 43.777344 14.507812 44.0625 15.082031 44.039062 C 15.660156 44.011719 16.355469 43.675781 17.207031 42.65625 C 18.757812 40.785156 20.367188 38.964844 22.035156 37.195312 C 19.632812 35.109375 18.460938 31.941406 18.921875 28.792969 C 19.199219 26.824219 19.234375 24.980469 19.203125 23.523438 C 19.171875 22.105469 19.070312 21.164062 19.070312 20.574219 C 19.070312 20.554688 19.070312 20.539062 19.070312 20.523438 L 19.070312 20.507812 L 19.066406 20.492188 C 19.066406 17.421875 19.597656 14.375 20.644531 11.488281 C 21.390625 9.503906 22.503906 7.488281 24.171875 5.855469 C 22.535156 5.316406 19.625 4.496094 16.480469 4.339844 C 16.140625 4.324219 15.804688 4.316406 15.464844 4.316406 Z M 48.53125 18.398438 C 46.71875 18.425781 45.703125 18.890625 45.171875 19.5 C 44.414062 20.367188 44.34375 21.886719 44.8125 23.761719 C 45.28125 25.632812 46.246094 27.730469 47.152344 29.472656 C 47.605469 30.34375 48.046875 31.128906 48.398438 31.765625 C 48.757812 32.40625 49.019531 32.859375 49.179688 33.246094 C 49.324219 33.601562 49.488281 33.917969 49.652344 34.210938 C 50.355469 32.730469 50.480469 31.277344 50.40625 29.761719 C 50.316406 27.886719 49.878906 25.96875 49.945312 24.03125 C 50.015625 21.761719 50.464844 20.28125 50.503906 18.527344 C 49.851562 18.441406 49.191406 18.402344 48.53125 18.398438 Z M 26.574219 18.707031 C 26.019531 18.710938 25.46875 18.777344 24.929688 18.902344 C 23.855469 19.164062 22.824219 19.566406 21.855469 20.101562 C 21.527344 20.277344 21.21875 20.480469 20.925781 20.710938 L 20.867188 20.761719 C 20.882812 21.152344 20.960938 22.097656 20.992188 23.484375 C 21.023438 25.003906 20.988281 26.945312 20.691406 29.042969 C 20.054688 33.601562 23.367188 37.378906 27.253906 37.382812 C 27.480469 36.449219 27.851562 35.5 28.226562 34.5 C 29.308594 31.582031 31.441406 29.453125 29.644531 21.148438 C 29.351562 19.789062 28.769531 19.238281 27.96875 18.929688 C 27.523438 18.773438 27.046875 18.695312 26.574219 18.707031 Z M 47.683594 19.25 L 47.820312 19.25 C 47.996094 19.257812 48.15625 19.273438 48.296875 19.308594 C 48.441406 19.339844 48.566406 19.390625 48.667969 19.457031 C 48.773438 19.519531 48.84375 19.628906 48.867188 19.75 L 48.863281 19.769531 L 48.867188 19.769531 L 48.863281 19.769531 C 48.871094 19.898438 48.835938 20.023438 48.769531 20.128906 C 48.691406 20.277344 48.59375 20.410156 48.476562 20.53125 C 48.207031 20.828125 47.84375 21.027344 47.449219 21.097656 C 47.0625 21.144531 46.671875 21.042969 46.355469 20.820312 C 46.222656 20.734375 46.109375 20.628906 46.007812 20.507812 C 45.921875 20.410156 45.863281 20.292969 45.839844 20.167969 C 45.828125 20.042969 45.871094 19.921875 45.953125 19.828125 C 46.039062 19.726562 46.144531 19.644531 46.265625 19.585938 C 46.519531 19.441406 46.867188 19.335938 47.257812 19.277344 C 47.40625 19.257812 47.550781 19.246094 47.683594 19.242188 Z M 26.832031 19.699219 C 26.972656 19.699219 27.121094 19.710938 27.273438 19.734375 C 27.683594 19.789062 28.046875 19.898438 28.324219 20.058594 C 28.457031 20.128906 28.578125 20.226562 28.675781 20.339844 C 28.785156 20.464844 28.839844 20.628906 28.820312 20.792969 C 28.796875 20.949219 28.726562 21.089844 28.621094 21.207031 C 28.511719 21.339844 28.382812 21.457031 28.238281 21.550781 C 27.894531 21.796875 27.46875 21.90625 27.046875 21.851562 C 26.613281 21.78125 26.21875 21.566406 25.925781 21.246094 C 25.800781 21.117188 25.695312 20.96875 25.609375 20.808594 C 25.523438 20.667969 25.484375 20.5 25.5 20.335938 C 25.542969 20.046875 25.777344 19.898438 26.011719 19.816406 C 26.273438 19.730469 26.550781 19.695312 26.828125 19.710938 Z M 50.992188 39.28125 L 50.984375 39.28125 C 50.59375 39.425781 50.269531 39.484375 49.996094 39.601562 C 49.722656 39.707031 49.496094 39.910156 49.359375 40.171875 C 49.191406 40.480469 49.046875 41.023438 49.089844 41.949219 C 49.210938 42.03125 49.34375 42.09375 49.484375 42.136719 C 49.941406 42.273438 50.707031 42.367188 51.558594 42.351562 C 53.261719 42.332031 55.355469 41.9375 56.464844 41.417969 C 57.378906 40.996094 58.226562 40.441406 58.980469 39.777344 C 55.265625 40.546875 53.164062 40.339844 51.878906 39.8125 C 51.558594 39.675781 51.257812 39.496094 50.992188 39.277344 Z M 29.574219 39.53125 L 29.519531 39.53125 C 29.378906 39.542969 29.171875 39.59375 28.777344 40.03125 C 27.847656 41.070312 27.523438 41.726562 26.757812 42.335938 C 25.992188 42.945312 24.996094 43.269531 23.011719 43.675781 C 22.382812 43.804688 22.019531 43.945312 21.78125 44.0625 C 21.859375 44.125 21.851562 44.140625 21.96875 44.203125 C 22.257812 44.363281 22.632812 44.503906 22.933594 44.582031 C 23.785156 44.792969 25.1875 45.042969 26.652344 44.792969 C 28.117188 44.542969 29.640625 43.84375 30.9375 42.019531 C 31.164062 41.707031 31.1875 41.242188 31.003906 40.742188 C 30.816406 40.246094 30.40625 39.816406 30.121094 39.695312 C 29.949219 39.613281 29.765625 39.558594 29.574219 39.535156 Z M 29.574219 39.53125 "/>
</g>
</svg>
