<?xml version="1.0" encoding="UTF-8"?>
<svg xmlns="http://www.w3.org/2000/svg" xmlns:xlink="http://www.w3.org/1999/xlink" width="64px" height="px" viewBox="0 0 64 64" version="1.1">
<g id="surface1">
<path style=" stroke:none;fill-rule:nonzero;fill:rgb(230,230,230);fill-opacity:1;" d="M 20.265625 38.910156 L 20.265625 25.371094 L 21 25.371094 L 21 27.5 C 21.484375 26.335938 22.6875 25.640625 23.9375 25.808594 C 25.183594 25.972656 26.167969 26.953125 26.332031 28.203125 C 26.496094 29.453125 25.804688 30.65625 24.640625 31.140625 C 26.316406 31.089844 27.675781 31.710938 28.476562 33.199219 C 25.324219 33.234375 22.585938 31.046875 21.925781 27.96875 C 21.265625 24.890625 22.867188 21.769531 25.753906 20.511719 C 28.640625 19.253906 32.015625 20.203125 33.824219 22.78125 C 35.628906 25.363281 35.367188 28.855469 33.199219 31.140625 C 32.453125 32.808594 30.613281 33.640625 28.644531 33.335938 C 29.1875 34.996094 28.488281 36.808594 26.96875 37.675781 C 25.453125 38.542969 23.535156 38.226562 22.378906 36.917969 C 21.222656 35.609375 21.144531 33.667969 22.191406 32.269531 C 23.238281 30.871094 25.125 30.398438 26.703125 31.140625 L 26.703125 36.523438 Z M 21 30.160156 C 21.066406 30.820312 21.089844 31.289062 21.164062 31.75 C 21.453125 33.558594 22.523438 34.636719 24.203125 34.828125 C 23.1875 31.894531 24.738281 28.691406 27.671875 27.671875 C 30.605469 26.652344 33.8125 28.207031 34.828125 31.140625 C 33.941406 33.054688 32.09375 34.347656 29.988281 34.523438 L 33.285156 37.820312 L 49.984375 37.820312 Z M 44.203125 32 C 45.117188 30.289062 47.132812 29.488281 48.96875 30.109375 C 50.804688 30.726562 51.921875 32.585938 51.609375 34.5 C 51.296875 36.414062 49.644531 37.816406 47.703125 37.820312 C 44.625 37.976562 43.179688 35.929688 42.949219 33.570312 C 41.902344 30.570312 43.070312 27.246094 45.757812 25.558594 C 48.449219 23.867188 51.949219 24.265625 54.195312 26.511719 C 56.441406 28.757812 56.835938 32.257812 55.148438 34.945312 C 53.457031 37.636719 50.132812 38.800781 47.136719 37.753906 L 47.136719 46.304688 C 48.570312 45.46875 49.351562 45.46875 49.386719 46.304688 L 36.335938 46.304688 C 36.183594 48.445312 37.335938 50.164062 38.964844 50.578125 C 40.996094 51.078125 42.730469 50.199219 43.359375 48.269531 C 43.5 47.773438 43.753906 47.703125 44.203125 47.84375 Z M 36.335938 29.773438 L 43.570312 29.773438 C 43.523438 27.496094 42.105469 25.84375 40.179688 25.820312 C 38 25.785156 36.429688 27.375 36.335938 29.773438 Z M 45.695312 32.050781 L 46.40625 32.050781 C 47.609375 30.84375 49.566406 30.84375 50.769531 32.050781 C 51.976562 33.253906 51.976562 35.210938 50.769531 36.414062 L 50.769531 37.414062 C 50.820312 36.75 50.398438 36.125 49.730469 35.871094 C 48.949219 35.578125 48.121094 35.421875 47.324219 35.164062 C 55.496094 37.648438 60.714844 45.632812 59.703125 54.113281 C 58.695312 62.59375 51.75 69.128906 43.222656 69.625 C 34.695312 70.117188 27.042969 64.429688 25.058594 56.121094 C 23.074219 47.8125 27.335938 39.28125 35.164062 35.871094 C 33.886719 35.246094 33.804688 32.808594 35.253906 32.039062 C 34.246094 29.792969 34.988281 27.144531 37.015625 25.75 C 39.042969 24.351562 41.78125 24.601562 43.523438 26.34375 C 45.265625 28.082031 45.515625 30.820312 44.117188 32.847656 C 42.71875 34.875 40.074219 35.617188 37.824219 34.609375 L 37.214844 34.609375 C 37.214844 34.578125 37.160156 34.554688 37.160156 34.523438 C 37.085938 32.578125 35.453125 31.980469 33.703125 32.148438 C 33.941406 32.621094 34.09375 33.128906 34.160156 33.648438 L 35.660156 35.148438 C 36.429688 35.429688 37.234375 35.609375 38.023438 35.828125 C 38.660156 36.003906 39.320312 36.121094 39.933594 36.328125 C 40.019531 35.128906 41.03125 34.203125 42.238281 34.230469 C 43.441406 34.257812 44.410156 35.230469 44.4375 36.433594 C 44.464844 37.636719 43.542969 38.652344 42.339844 38.734375 C 40.671875 39.679688 37.921875 39.429688 36.695312 38.234375 C 38.277344 38.5 39.449219 39.851562 39.480469 41.453125 C 39.515625 43.058594 38.402344 44.457031 36.835938 44.789062 C 35.265625 45.117188 33.683594 44.285156 33.066406 42.804688 C 32.453125 41.324219 32.976562 39.613281 34.320312 38.734375 Z M 62.605469 28.304688 L 61.941406 28.304688 C 61.941406 28.214844 61.90625 28.136719 61.894531 28.058594 C 63.101562 28.636719 63.609375 30.082031 63.03125 31.289062 C 62.457031 32.492188 61.011719 33.003906 59.804688 32.425781 L 61.511719 34.128906 L 63.078125 34.128906 C 64.078125 34.441406 65.105469 34.628906 66.121094 34.910156 C 63.75 31.261719 64.519531 26.414062 67.898438 23.675781 C 71.28125 20.9375 76.183594 21.195312 79.257812 24.269531 C 82.335938 27.347656 82.59375 32.25 79.855469 35.628906 C 77.117188 39.011719 72.269531 39.777344 68.621094 37.410156 L 68.621094 37.910156 C 121.414062 43.683594 164.324219 47.941406 164.460938 47.421875 C 164.597656 46.90625 121.914062 41.804688 69.121094 36.03125 L 69.769531 36.03125 C 69.03125 34.425781 69.546875 32.523438 70.996094 31.515625 C 72.445312 30.503906 74.410156 30.679688 75.65625 31.925781 C 76.90625 33.175781 77.082031 35.140625 76.070312 36.589844 C 75.0625 38.039062 73.160156 38.554688 71.554688 37.816406 C 70.773438 37.523438 69.945312 37.371094 69.148438 37.113281 C 76.890625 31.3125 87.855469 32.796875 93.78125 40.445312 C 99.703125 48.09375 98.394531 59.082031 90.839844 65.125 C 83.285156 71.167969 72.28125 70.03125 66.117188 62.574219 C 59.953125 55.117188 60.914062 44.09375 68.273438 37.816406 C 67.023438 37.199219 66.925781 34.785156 68.351562 34.015625 C 67.386719 31.796875 68.136719 29.207031 70.136719 27.847656 C 72.136719 26.488281 74.820312 26.742188 76.527344 28.449219 C 78.238281 30.160156 78.492188 32.84375 77.132812 34.84375 C 75.773438 36.84375 73.183594 37.59375 70.964844 36.628906 Z M 19.050781 35.253906 C 19.472656 35.027344 19.992188 35.085938 20.351562 35.40625 C 20.714844 35.722656 20.835938 36.234375 20.660156 36.679688 C 20.484375 37.128906 20.046875 37.417969 19.566406 37.40625 C 19.085938 37.394531 18.664062 37.085938 18.511719 36.628906 C 17.695312 35.410156 16.796875 34.246094 15.929688 33.054688 L 15.554688 32.554688 C 14.523438 33.933594 13.496094 35.261719 12.554688 36.636719 C 12.015625 36.507812 11.65625 35.996094 11.71875 35.441406 C 11.777344 34.890625 12.242188 34.46875 12.800781 34.464844 C 13.355469 34.460938 13.828125 34.871094 13.902344 35.421875 C 13.972656 35.972656 13.625 36.492188 13.085938 36.628906 L 16.949219 31.445312 L 13.355469 26.761719 C 16.082031 26.835938 18.230469 29.105469 18.15625 31.828125 C 18.082031 34.554688 15.808594 36.703125 13.085938 36.628906 C 13.921875 37.851562 14.84375 39.015625 15.765625 40.25 C 16.691406 39.023438 17.605469 37.855469 18.460938 36.644531 C 18.457031 31.625 22.523438 27.550781 27.546875 27.546875 C 32.566406 27.539062 36.640625 31.609375 36.644531 36.628906 L 35.25 38.480469 C 34.625 39.304688 34.011719 40.136719 33.359375 40.941406 C 32.167969 38.847656 32.902344 36.183594 34.996094 34.996094 C 37.089844 33.804688 39.75 34.535156 40.941406 36.628906 C 42.136719 38.214844 43.320312 39.804688 44.539062 41.433594 Z M 35.460938 25.328125 L 35.460938 26.03125 C 38.386719 24.996094 41.597656 26.53125 42.632812 29.457031 C 43.667969 32.382812 42.132812 35.597656 39.203125 36.628906 L 39.203125 42.128906 L 38.488281 42.128906 L 38.488281 25.371094 L 39.191406 25.371094 L 39.191406 27.398438 C 40.054688 25.921875 41.390625 25.371094 43.066406 25.328125 Z M 1.066406 30 C 1.171875 29.5 1.234375 28.953125 1.378906 28.445312 C 2.246094 25.371094 5.769531 24.089844 8.195312 25.996094 C 9.613281 27.109375 9.96875 28.691406 9.898438 30.46875 L 1.898438 30.46875 C 1.769531 33.648438 4.066406 35.570312 7 34.589844 C 7.5625 26.972656 14.195312 21.25 21.816406 21.816406 C 29.433594 22.378906 35.152344 29.011719 34.589844 36.628906 C 34.746094 36.128906 34.996094 36.046875 35.46875 36.191406 C 35.785156 34.554688 37.070312 33.277344 38.707031 32.96875 C 40.34375 32.664062 42 33.386719 42.890625 34.792969 C 43.777344 36.203125 43.71875 38.011719 42.734375 39.355469 C 41.75 40.699219 40.046875 41.308594 38.433594 40.890625 L 43.359375 45.816406 C 43.359375 45.644531 43.296875 45.476562 43.261719 45.316406 C 43.257812 45.019531 43.253906 44.726562 43.253906 44.445312 Z M 1.910156 29.785156 L 9.144531 29.785156 C 9.101562 27.480469 7.644531 25.84375 5.703125 25.828125 C 3.546875 25.800781 2 27.398438 1.90625 29.773438 Z M 1.910156 29.785156 "/>
</g>
</svg>
