<?xml version="1.0" encoding="UTF-8"?>
<svg xmlns="http://www.w3.org/2000/svg" xmlns:xlink="http://www.w3.org/1999/xlink" width="64px" height="px" viewBox="0 0 64 64" version="1.1">
<defs>
<filter id="alpha" filterUnits="objectBoundingBox" x="0%" y="0%" width="100%" height="100%">
  <feColorMatrix type="matrix" in="SourceGraphic" values="0 0 0 0 1 0 0 0 0 1 0 0 0 0 1 0 0 0 1 0"/>
</filter>
<mask id="mask0">
  <g filter="url(#alpha)">
<rect x="0" y="0" width="64" height="64" style="fill:rgb(0%,0%,0%);fill-opacity:0.101961;stroke:none;"/>
  </g>
</mask>
<clipPath id="clip1">
  <rect x="0" y="0" width="64" height="64"/>
</clipPath>
<g id="surface5" clip-path="url(#clip1)">
<path style=" stroke:none;fill-rule:nonzero;fill:rgb(0.392157%,0.392157%,0.392157%);fill-opacity:1;" d="M 63.148438 33.839844 L 34.859375 62.148438 C 34.097656 62.910156 33.082031 63.332031 32 63.332031 C 30.917969 63.332031 29.902344 62.910156 29.140625 62.148438 L 0.851562 33.839844 C 0.519531 33.507812 0.269531 33.125 0.0703125 32.714844 C 0.21875 33.503906 0.59375 34.230469 1.171875 34.808594 L 29.167969 62.824219 C 29.925781 63.582031 30.929688 64 32 64 C 33.070312 64 34.074219 63.582031 34.828125 62.828125 L 62.828125 34.808594 C 63.40625 34.230469 63.78125 33.503906 63.929688 32.714844 C 63.734375 33.125 63.480469 33.507812 63.148438 33.839844 Z M 63.148438 33.839844 "/>
</g>
<mask id="mask1">
  <g filter="url(#alpha)">
<rect x="0" y="0" width="64" height="64" style="fill:rgb(0%,0%,0%);fill-opacity:0.2;stroke:none;"/>
  </g>
</mask>
<clipPath id="clip2">
  <rect x="0" y="0" width="64" height="64"/>
</clipPath>
<g id="surface8" clip-path="url(#clip2)">
<path style=" stroke:none;fill-rule:nonzero;fill:rgb(100%,100%,100%);fill-opacity:1;" d="M 1.167969 29.820312 L 29.171875 1.800781 C 30.675781 0.289062 33.320312 0.289062 34.832031 1.800781 L 62.828125 29.816406 C 62.828125 29.816406 62.828125 29.820312 62.832031 29.820312 C 63.503906 30.496094 63.890625 31.375 63.96875 32.3125 C 63.976562 32.203125 64 32.09375 64 31.980469 C 64 30.914062 63.582031 29.910156 62.832031 29.152344 C 62.828125 29.152344 62.828125 29.152344 62.828125 29.152344 L 34.832031 1.136719 C 33.320312 -0.378906 30.675781 -0.378906 29.171875 1.132812 L 1.167969 29.152344 C 0.417969 29.910156 0 30.914062 0 31.980469 C 0 32.09375 0.0234375 32.203125 0.03125 32.3125 C 0.109375 31.375 0.496094 30.496094 1.167969 29.820312 Z M 1.167969 29.820312 "/>
</g>
<linearGradient id="linear0" gradientUnits="userSpaceOnUse" x1="9.669266" y1="9.676086" x2="18.306595" y2="18.313416" gradientTransform="matrix(2.666667,0,0,2.666667,0,0)">
<stop offset="0" style="stop-color:rgb(0.392157%,0.392157%,0.392157%);stop-opacity:0.101961;"/>
<stop offset="1" style="stop-color:rgb(0.392157%,0.392157%,0.392157%);stop-opacity:0;"/>
</linearGradient>
<linearGradient id="linear1" gradientUnits="userSpaceOnUse" x1="2.013819" y1="7.33992" x2="21.983366" y2="16.651873" gradientTransform="matrix(2.666667,0,0,2.666667,0,0)">
<stop offset="0" style="stop-color:rgb(100%,100%,100%);stop-opacity:0.2;"/>
<stop offset="1" style="stop-color:rgb(100%,100%,100%);stop-opacity:0;"/>
</linearGradient>
</defs>
<g id="surface1">
<path style=" stroke:none;fill-rule:nonzero;fill:rgb(93.72549%,27.843137%,23.137255%);fill-opacity:1;" d="M 62.832031 29.152344 C 62.828125 29.152344 62.828125 29.152344 62.828125 29.152344 L 34.832031 1.136719 C 33.320312 -0.378906 30.675781 -0.378906 29.171875 1.132812 L 1.167969 29.152344 C 0.417969 29.910156 0 30.914062 0 31.980469 C 0 33.050781 0.417969 34.054688 1.171875 34.808594 L 29.167969 62.824219 C 29.925781 63.582031 30.929688 64 32 64 C 33.070312 64 34.074219 63.582031 34.828125 62.828125 L 62.828125 34.808594 C 63.582031 34.054688 64 33.050781 64 31.980469 C 64 30.914062 63.582031 29.910156 62.832031 29.152344 Z M 62.832031 29.152344 "/>
<use xlink:href="#surface5" mask="url(#mask0)"/>
<path style=" stroke:none;fill-rule:nonzero;fill:rgb(100%,100%,100%);fill-opacity:1;" d="M 45.332031 26.667969 C 44.332031 26.667969 43.40625 26.960938 42.605469 27.441406 L 36.558594 21.394531 C 37.039062 20.59375 37.332031 19.667969 37.332031 18.667969 C 37.332031 15.726562 34.941406 13.332031 32 13.332031 C 31.015625 13.332031 30.101562 13.621094 29.308594 14.089844 L 22.765625 7.546875 L 20.878906 9.429688 L 27.421875 15.976562 C 26.953125 16.769531 26.667969 17.679688 26.667969 18.667969 C 26.667969 21.144531 28.375 23.214844 30.667969 23.8125 L 30.667969 40.191406 C 28.375 40.785156 26.667969 42.855469 26.667969 45.332031 C 26.667969 48.273438 29.058594 50.667969 32 50.667969 C 34.941406 50.667969 37.332031 48.273438 37.332031 45.332031 C 37.332031 42.855469 35.625 40.785156 33.332031 40.191406 L 33.332031 23.8125 C 33.804688 23.6875 34.246094 23.5 34.660156 23.261719 L 40.738281 29.339844 C 40.28125 30.128906 40 31.027344 40 32 C 40 34.941406 42.394531 37.332031 45.332031 37.332031 C 48.273438 37.332031 50.667969 34.941406 50.667969 32 C 50.667969 29.058594 48.273438 26.667969 45.332031 26.667969 Z M 45.332031 26.667969 "/>
<use xlink:href="#surface8" mask="url(#mask1)"/>
<path style=" stroke:none;fill-rule:nonzero;fill:url(#linear0);" d="M 49.464844 28.667969 C 50.203125 29.582031 50.667969 30.734375 50.667969 32 C 50.667969 34.941406 48.273438 37.332031 45.332031 37.332031 C 42.394531 37.332031 40 34.941406 40 32 C 40 31.027344 40.28125 30.128906 40.738281 29.339844 L 34.660156 23.261719 C 34.246094 23.5 33.804688 23.6875 33.332031 23.8125 L 33.332031 40.191406 C 35.625 40.785156 37.332031 42.855469 37.332031 45.332031 C 37.332031 48.273438 34.941406 50.667969 32 50.667969 C 30.636719 50.667969 29.402344 50.136719 28.457031 49.292969 L 38.410156 59.242188 L 59.21875 38.421875 Z M 36.558594 21.394531 L 42.605469 27.441406 C 43.40625 26.960938 44.332031 26.667969 45.332031 26.667969 C 46.601562 26.667969 47.75 27.128906 48.667969 27.871094 L 36.191406 15.394531 L 36.1875 15.402344 C 36.894531 16.308594 37.332031 17.429688 37.332031 18.667969 C 37.332031 19.667969 37.039062 20.59375 36.558594 21.394531 Z M 36.558594 21.394531 "/>
<path style=" stroke:none;fill-rule:nonzero;fill:url(#linear1);" d="M 62.832031 29.152344 C 62.828125 29.152344 62.828125 29.152344 62.828125 29.152344 L 34.832031 1.136719 C 33.320312 -0.378906 30.675781 -0.378906 29.171875 1.132812 L 1.167969 29.152344 C 0.417969 29.910156 0 30.914062 0 31.980469 C 0 33.050781 0.417969 34.054688 1.171875 34.808594 L 29.167969 62.824219 C 29.925781 63.582031 30.929688 64 32 64 C 33.070312 64 34.074219 63.582031 34.828125 62.828125 L 62.828125 34.808594 C 63.582031 34.054688 64 33.050781 64 31.980469 C 64 30.914062 63.582031 29.910156 62.832031 29.152344 Z M 62.832031 29.152344 "/>
</g>
</svg>
