<?xml version="1.0" encoding="UTF-8"?>
<svg xmlns="http://www.w3.org/2000/svg" xmlns:xlink="http://www.w3.org/1999/xlink" width="64px" height="px" viewBox="0 0 63 18" version="1.1">
<g id="surface1">
<path style=" stroke:none;fill-rule:nonzero;fill:rgb(55.686275%,44.313725%,30.588235%);fill-opacity:1;" d="M 57.363281 7.644531 C 57.316406 7.65625 57.253906 7.765625 57.253906 7.839844 C 57.242188 8.273438 57.230469 9.40625 57.230469 10.183594 C 57.230469 10.207031 57.265625 10.246094 57.289062 10.246094 C 57.449219 10.257812 57.832031 10.269531 58.164062 10.269531 C 58.621094 10.269531 58.890625 10.207031 59.039062 10.148438 C 59.417969 9.949219 59.605469 9.53125 59.605469 9.074219 C 59.605469 8.039062 58.878906 7.632812 57.796875 7.632812 C 57.734375 7.605469 57.523438 7.605469 57.363281 7.644531 Z M 60.121094 12.441406 C 60.121094 11.378906 59.34375 10.789062 57.929688 10.789062 C 57.867188 10.789062 57.414062 10.773438 57.316406 10.800781 C 57.277344 10.8125 57.242188 10.835938 57.242188 10.863281 C 57.242188 11.625 57.230469 12.835938 57.265625 13.304688 C 57.289062 13.511719 57.4375 13.796875 57.621094 13.882812 C 57.820312 13.992188 58.25 14.003906 58.558594 14.003906 C 59.382812 14.003906 60.121094 13.535156 60.121094 12.441406 Z M 55.175781 7.050781 C 55.285156 7.050781 55.605469 7.089844 56.429688 7.089844 C 57.203125 7.089844 57.832031 7.0625 58.59375 7.0625 C 59.53125 7.0625 60.808594 7.398438 60.808594 8.789062 C 60.808594 9.480469 60.328125 10.023438 59.703125 10.292969 C 59.664062 10.308594 59.664062 10.332031 59.703125 10.332031 C 60.601562 10.554688 61.386719 11.109375 61.386719 12.167969 C 61.386719 13.191406 60.75 13.859375 59.8125 14.265625 C 59.246094 14.511719 58.546875 14.597656 57.820312 14.597656 C 57.277344 14.597656 55.8125 14.535156 54.988281 14.558594 C 54.902344 14.523438 55.0625 14.140625 55.136719 14.078125 C 55.335938 14.066406 55.480469 14.054688 55.679688 13.992188 C 55.960938 13.917969 56 13.832031 56.046875 13.390625 C 56.074219 13.019531 56.074219 11.6875 56.074219 10.738281 C 56.074219 9.445312 56.085938 8.554688 56.074219 8.136719 C 56.058594 7.804688 55.949219 7.691406 55.703125 7.632812 C 55.519531 7.59375 55.222656 7.558594 54.976562 7.519531 C 54.929688 7.457031 55.113281 7.089844 55.175781 7.050781 Z M 49.007812 13.722656 C 49.269531 13.929688 49.773438 14.003906 50.214844 14.003906 C 50.792969 14.003906 51.371094 13.894531 51.925781 13.390625 C 52.492188 12.871094 52.886719 12.082031 52.886719 10.8125 C 52.886719 9.605469 52.429688 8.617188 51.484375 8.039062 C 50.953125 7.707031 50.265625 7.570312 49.476562 7.570312 C 49.242188 7.570312 49.023438 7.582031 48.875 7.644531 C 48.835938 7.667969 48.761719 7.765625 48.761719 7.816406 C 48.738281 8.027344 48.738281 9.679688 48.738281 10.652344 C 48.738281 11.652344 48.738281 13.042969 48.761719 13.203125 C 48.777344 13.363281 48.851562 13.609375 49.007812 13.722656 Z M 46.574219 7.050781 C 46.78125 7.050781 47.558594 7.089844 47.925781 7.089844 C 48.601562 7.089844 49.082031 7.050781 50.351562 7.050781 C 51.421875 7.050781 52.320312 7.335938 52.960938 7.890625 C 53.734375 8.570312 54.152344 9.492188 54.152344 10.640625 C 54.152344 12.253906 53.414062 13.191406 52.675781 13.722656 C 51.9375 14.265625 50.976562 14.585938 49.601562 14.585938 C 48.875 14.585938 47.617188 14.558594 46.585938 14.546875 L 46.574219 14.546875 C 46.523438 14.449219 46.660156 14.078125 46.746094 14.066406 C 47.027344 14.03125 47.101562 14.03125 47.238281 13.96875 C 47.460938 13.882812 47.507812 13.757812 47.53125 13.363281 C 47.570312 12.625 47.558594 11.738281 47.558594 10.726562 C 47.558594 10.011719 47.570312 8.605469 47.546875 8.148438 C 47.507812 7.78125 47.347656 7.679688 47.027344 7.621094 C 46.867188 7.582031 46.660156 7.546875 46.351562 7.507812 C 46.328125 7.445312 46.523438 7.113281 46.574219 7.050781 Z M 46.574219 7.050781 "/>
<path style=" stroke:none;fill-rule:nonzero;fill:rgb(26.666667%,17.647059%,13.333333%);fill-opacity:1;" d="M 33.628906 14.140625 C 33.359375 14.105469 33.171875 14.066406 32.925781 13.957031 C 32.890625 13.929688 32.839844 13.832031 32.839844 13.785156 C 32.816406 13.414062 32.816406 12.339844 32.816406 11.613281 C 32.816406 11.035156 32.71875 10.527344 32.472656 10.171875 C 32.1875 9.765625 31.769531 9.53125 31.230469 9.53125 C 30.761719 9.53125 30.121094 9.851562 29.605469 10.308594 C 29.59375 10.320312 29.507812 10.394531 29.519531 10.269531 C 29.519531 10.148438 29.542969 9.914062 29.554688 9.753906 C 29.566406 9.605469 29.480469 9.53125 29.480469 9.53125 C 29.136719 9.703125 28.179688 9.925781 27.820312 9.960938 C 27.5625 10.011719 27.5 10.257812 27.773438 10.34375 L 27.785156 10.34375 C 28.066406 10.429688 28.265625 10.527344 28.410156 10.628906 C 28.523438 10.714844 28.511719 10.835938 28.511719 10.921875 C 28.523438 11.726562 28.523438 12.957031 28.484375 13.636719 C 28.472656 13.90625 28.398438 14.003906 28.203125 14.042969 L 28.226562 14.03125 C 28.078125 14.066406 27.957031 14.089844 27.773438 14.117188 C 27.710938 14.179688 27.710938 14.523438 27.773438 14.597656 C 27.894531 14.597656 28.511719 14.558594 29.027344 14.558594 C 29.726562 14.558594 30.097656 14.597656 30.28125 14.597656 C 30.355469 14.511719 30.378906 14.191406 30.332031 14.117188 C 30.121094 14.105469 29.972656 14.078125 29.839844 14.042969 C 29.640625 14.003906 29.59375 13.90625 29.582031 13.671875 C 29.554688 13.105469 29.554688 11.910156 29.554688 11.082031 C 29.554688 10.863281 29.617188 10.75 29.679688 10.6875 C 29.925781 10.480469 30.320312 10.320312 30.675781 10.320312 C 31.019531 10.320312 31.242188 10.429688 31.414062 10.566406 C 31.648438 10.761719 31.722656 11.035156 31.757812 11.242188 C 31.808594 11.699219 31.796875 12.613281 31.796875 13.414062 C 31.796875 13.84375 31.757812 13.945312 31.597656 14.003906 C 31.523438 14.042969 31.328125 14.078125 31.105469 14.105469 C 31.03125 14.179688 31.058594 14.511719 31.105469 14.585938 C 31.414062 14.585938 31.78125 14.546875 32.3125 14.546875 C 32.976562 14.546875 33.40625 14.585938 33.578125 14.585938 C 33.652344 14.535156 33.679688 14.226562 33.628906 14.140625 Z M 36.59375 10.046875 C 36.027344 10.046875 35.671875 10.492188 35.671875 11.167969 C 35.671875 11.871094 35.980469 12.675781 36.863281 12.675781 C 37.011719 12.675781 37.296875 12.613281 37.417969 12.464844 C 37.628906 12.265625 37.761719 11.886719 37.761719 11.476562 C 37.761719 10.578125 37.320312 10.046875 36.59375 10.046875 Z M 36.519531 14.78125 C 36.3125 14.78125 36.152344 14.84375 36.066406 14.90625 C 35.609375 15.1875 35.414062 15.472656 35.414062 15.804688 C 35.414062 16.113281 35.535156 16.359375 35.78125 16.582031 C 36.089844 16.851562 36.519531 16.976562 37.0625 16.976562 C 38.15625 16.976562 38.636719 16.386719 38.636719 15.804688 C 38.636719 15.398438 38.425781 15.128906 38.023438 14.980469 C 37.714844 14.84375 37.171875 14.78125 36.519531 14.78125 Z M 36.59375 17.570312 C 35.941406 17.570312 35.472656 17.433594 35.070312 17.113281 C 34.675781 16.816406 34.503906 16.359375 34.503906 16.050781 C 34.503906 15.964844 34.527344 15.730469 34.710938 15.523438 C 34.835938 15.398438 35.082031 15.152344 35.695312 14.734375 C 35.71875 14.71875 35.734375 14.707031 35.734375 14.695312 C 35.734375 14.671875 35.707031 14.660156 35.695312 14.648438 C 35.191406 14.449219 35.042969 14.140625 34.996094 13.96875 L 34.996094 13.929688 C 34.980469 13.871094 34.957031 13.808594 35.054688 13.734375 C 35.128906 13.683594 35.242188 13.609375 35.351562 13.535156 C 35.535156 13.425781 35.71875 13.316406 35.84375 13.214844 C 35.867188 13.191406 35.867188 13.179688 35.867188 13.15625 C 35.867188 13.128906 35.84375 13.117188 35.832031 13.105469 C 35.082031 12.859375 34.710938 12.304688 34.710938 11.464844 C 34.710938 10.921875 34.957031 10.429688 35.402344 10.109375 C 35.695312 9.875 36.445312 9.578125 36.9375 9.578125 L 36.976562 9.578125 C 37.480469 9.589844 37.75 9.703125 38.15625 9.839844 C 38.367188 9.914062 38.574219 9.949219 38.859375 9.949219 C 39.277344 9.949219 39.460938 9.824219 39.609375 9.664062 C 39.621094 9.691406 39.644531 9.738281 39.644531 9.875 C 39.65625 10.011719 39.609375 10.21875 39.511719 10.367188 C 39.425781 10.492188 39.226562 10.578125 39.042969 10.578125 L 38.992188 10.578125 C 38.796875 10.554688 38.710938 10.542969 38.710938 10.542969 L 38.671875 10.566406 C 38.660156 10.589844 38.671875 10.601562 38.6875 10.640625 L 38.699219 10.664062 C 38.722656 10.761719 38.757812 11.046875 38.757812 11.121094 C 38.757812 11.996094 38.402344 12.390625 38.035156 12.675781 C 37.664062 12.945312 37.257812 13.117188 36.777344 13.15625 C 36.765625 13.15625 36.730469 13.15625 36.632812 13.167969 C 36.582031 13.167969 36.507812 13.179688 36.496094 13.179688 L 36.484375 13.179688 C 36.398438 13.203125 36.1875 13.304688 36.1875 13.488281 C 36.1875 13.648438 36.285156 13.84375 36.742188 13.871094 C 36.839844 13.882812 36.9375 13.882812 37.039062 13.894531 C 37.652344 13.929688 38.402344 13.992188 38.757812 14.105469 C 39.25 14.289062 39.558594 14.71875 39.558594 15.25 C 39.558594 16.039062 38.992188 16.78125 38.046875 17.246094 C 37.554688 17.457031 37.097656 17.570312 36.59375 17.570312 Z M 42.695312 10.097656 C 42.476562 10.097656 42.265625 10.148438 42.117188 10.257812 C 41.699219 10.515625 41.492188 11.035156 41.492188 11.773438 C 41.492188 13.179688 42.191406 14.164062 43.203125 14.164062 C 43.496094 14.164062 43.730469 14.078125 43.941406 13.90625 C 44.246094 13.648438 44.40625 13.128906 44.40625 12.414062 C 44.40625 11.035156 43.707031 10.097656 42.695312 10.097656 Z M 42.882812 14.683594 C 41.0625 14.683594 40.410156 13.339844 40.410156 12.09375 C 40.410156 11.21875 40.765625 10.542969 41.46875 10.058594 C 41.972656 9.753906 42.574219 9.578125 43.101562 9.578125 C 44.492188 9.578125 45.464844 10.578125 45.464844 12.007812 C 45.464844 12.980469 45.085938 13.757812 44.347656 14.226562 C 44 14.460938 43.386719 14.683594 42.882812 14.683594 Z M 23.820312 10.097656 C 23.601562 10.097656 23.390625 10.148438 23.242188 10.257812 C 22.824219 10.515625 22.617188 11.035156 22.617188 11.773438 C 22.617188 13.179688 23.316406 14.164062 24.328125 14.164062 C 24.621094 14.164062 24.855469 14.078125 25.066406 13.90625 C 25.371094 13.648438 25.53125 13.128906 25.53125 12.414062 C 25.53125 11.035156 24.84375 10.097656 23.820312 10.097656 Z M 24.019531 14.683594 C 22.199219 14.683594 21.546875 13.339844 21.546875 12.09375 C 21.546875 11.21875 21.902344 10.542969 22.605469 10.058594 C 23.109375 9.753906 23.710938 9.578125 24.242188 9.578125 C 25.628906 9.578125 26.601562 10.578125 26.601562 12.007812 C 26.601562 12.980469 26.222656 13.757812 25.484375 14.226562 C 25.136719 14.460938 24.523438 14.683594 24.019531 14.683594 Z M 11.789062 14.574219 C 11.761719 14.535156 11.75 14.449219 11.75 14.324219 C 11.75 14.238281 11.777344 14.191406 11.789062 14.164062 C 12.007812 14.128906 12.132812 14.105469 12.253906 14.066406 C 12.464844 14.019531 12.550781 13.894531 12.5625 13.625 C 12.601562 12.980469 12.601562 11.761719 12.585938 10.910156 L 12.585938 10.886719 C 12.585938 10.789062 12.585938 10.675781 12.464844 10.589844 C 12.292969 10.480469 12.09375 10.378906 11.824219 10.308594 C 11.726562 10.269531 11.664062 10.21875 11.675781 10.160156 C 11.675781 10.097656 11.738281 10.023438 11.886719 10 C 12.242188 9.960938 13.152344 9.738281 13.523438 9.578125 C 13.546875 9.605469 13.570312 9.664062 13.570312 9.753906 L 13.558594 9.875 C 13.546875 10 13.535156 10.132812 13.535156 10.269531 C 13.535156 10.308594 13.570312 10.34375 13.621094 10.34375 C 13.644531 10.34375 13.65625 10.332031 13.683594 10.320312 C 14.371094 9.789062 14.988281 9.589844 15.308594 9.589844 C 15.835938 9.589844 16.242188 9.839844 16.550781 10.355469 C 16.574219 10.394531 16.585938 10.394531 16.625 10.394531 C 16.648438 10.394531 16.671875 10.378906 16.683594 10.355469 C 17.3125 9.875 17.953125 9.578125 18.371094 9.578125 C 19.367188 9.578125 19.957031 10.320312 19.957031 11.578125 C 19.957031 11.933594 19.957031 12.390625 19.945312 12.808594 C 19.945312 13.179688 19.933594 13.523438 19.933594 13.769531 C 19.933594 13.820312 20.007812 13.992188 20.128906 14.03125 C 20.277344 14.105469 20.488281 14.140625 20.746094 14.179688 L 20.757812 14.179688 C 20.78125 14.253906 20.734375 14.535156 20.695312 14.585938 C 20.636719 14.585938 20.535156 14.585938 20.425781 14.574219 C 20.214844 14.558594 19.933594 14.546875 19.613281 14.546875 C 18.949219 14.546875 18.605469 14.558594 18.273438 14.585938 C 18.246094 14.5 18.234375 14.238281 18.273438 14.179688 C 18.46875 14.140625 18.554688 14.117188 18.679688 14.078125 C 18.886719 14.019531 18.949219 13.917969 18.960938 13.636719 C 18.960938 13.425781 19 11.699219 18.9375 11.28125 C 18.875 10.847656 18.554688 10.34375 17.84375 10.34375 C 17.570312 10.34375 17.152344 10.453125 16.746094 10.761719 C 16.722656 10.789062 16.710938 10.835938 16.710938 10.875 L 16.710938 10.886719 C 16.746094 11.109375 16.746094 11.367188 16.746094 11.761719 L 16.746094 12.464844 C 16.746094 12.945312 16.734375 13.402344 16.746094 13.734375 C 16.746094 13.96875 16.882812 14.019531 17.003906 14.066406 C 17.066406 14.078125 17.117188 14.089844 17.164062 14.105469 C 17.261719 14.128906 17.363281 14.140625 17.507812 14.179688 C 17.535156 14.214844 17.535156 14.363281 17.496094 14.472656 C 17.484375 14.535156 17.460938 14.574219 17.460938 14.585938 C 17.089844 14.574219 16.722656 14.558594 16.179688 14.558594 C 16.019531 14.558594 15.738281 14.574219 15.503906 14.574219 C 15.308594 14.574219 15.136719 14.585938 15.023438 14.585938 C 15.011719 14.558594 14.988281 14.484375 14.988281 14.375 C 14.988281 14.277344 15.011719 14.203125 15.023438 14.179688 C 15.074219 14.164062 15.121094 14.152344 15.171875 14.152344 C 15.292969 14.128906 15.40625 14.117188 15.515625 14.089844 C 15.699219 14.042969 15.761719 13.945312 15.773438 13.710938 C 15.8125 13.179688 15.835938 11.636719 15.761719 11.257812 C 15.640625 10.640625 15.28125 10.320312 14.714844 10.320312 C 14.382812 10.320312 13.964844 10.480469 13.621094 10.738281 C 13.570312 10.773438 13.523438 10.886719 13.523438 10.984375 L 13.523438 11.613281 C 13.523438 12.390625 13.523438 13.351562 13.535156 13.769531 C 13.546875 13.894531 13.585938 14.054688 13.832031 14.105469 C 13.878906 14.117188 13.964844 14.140625 14.078125 14.140625 L 14.273438 14.179688 C 14.296875 14.238281 14.285156 14.5 14.238281 14.585938 C 14.125 14.585938 14.003906 14.574219 13.855469 14.574219 C 13.632812 14.558594 13.339844 14.546875 13.019531 14.546875 C 12.648438 14.546875 12.378906 14.558594 12.15625 14.574219 C 12.035156 14.574219 11.910156 14.574219 11.789062 14.574219 Z M 11.789062 14.574219 "/>
<path style=" stroke:none;fill-rule:nonzero;fill:rgb(100%,100%,100%);fill-opacity:1;" d="M 6.152344 17.148438 L 5.710938 17 C 5.710938 17 5.757812 14.757812 4.957031 14.597656 C 4.429688 13.980469 5.046875 -11.773438 6.964844 14.511719 C 6.964844 14.511719 6.300781 14.84375 6.1875 15.410156 C 6.066406 15.964844 6.152344 17.148438 6.152344 17.148438 Z M 6.152344 17.148438 "/>
<path style=" stroke:none;fill-rule:nonzero;fill:rgb(65.098039%,63.921569%,52.156863%);fill-opacity:1;" d="M 6.152344 17.148438 L 5.710938 17 C 5.710938 17 5.757812 14.757812 4.957031 14.597656 C 4.429688 13.980469 5.046875 -11.773438 6.964844 14.511719 C 6.964844 14.511719 6.300781 14.84375 6.1875 15.410156 C 6.066406 15.964844 6.152344 17.148438 6.152344 17.148438 Z M 6.152344 17.148438 "/>
<path style=" stroke:none;fill-rule:nonzero;fill:rgb(100%,100%,100%);fill-opacity:1;" d="M 6.386719 14.980469 C 6.386719 14.980469 10.226562 12.453125 9.328125 7.1875 C 8.464844 3.367188 6.410156 2.109375 6.1875 1.628906 C 5.941406 1.28125 5.710938 0.679688 5.710938 0.679688 L 5.871094 11.316406 C 5.882812 11.34375 5.550781 14.585938 6.386719 14.980469 "/>
<path style=" stroke:none;fill-rule:nonzero;fill:rgb(28.627451%,61.568627%,29.019608%);fill-opacity:1;" d="M 6.386719 14.980469 C 6.386719 14.980469 10.226562 12.453125 9.328125 7.1875 C 8.464844 3.367188 6.410156 2.109375 6.1875 1.628906 C 5.941406 1.28125 5.710938 0.679688 5.710938 0.679688 L 5.871094 11.316406 C 5.882812 11.34375 5.550781 14.585938 6.386719 14.980469 "/>
<path style=" stroke:none;fill-rule:nonzero;fill:rgb(100%,100%,100%);fill-opacity:1;" d="M 5.488281 15.128906 C 5.488281 15.128906 1.882812 12.660156 2.09375 8.320312 C 2.300781 3.980469 4.835938 1.847656 5.328125 1.453125 C 5.660156 1.109375 5.671875 0.984375 5.695312 0.640625 C 5.917969 1.121094 5.882812 7.851562 5.90625 8.65625 C 6.003906 11.699219 5.734375 14.546875 5.488281 15.128906 Z M 5.488281 15.128906 "/>
<path style=" stroke:none;fill-rule:nonzero;fill:rgb(34.509804%,66.666667%,31.372549%);fill-opacity:1;" d="M 5.488281 15.128906 C 5.488281 15.128906 1.882812 12.660156 2.09375 8.320312 C 2.300781 3.980469 4.835938 1.847656 5.328125 1.453125 C 5.660156 1.109375 5.671875 0.984375 5.695312 0.640625 C 5.917969 1.121094 5.882812 7.851562 5.90625 8.65625 C 6.003906 11.699219 5.734375 14.546875 5.488281 15.128906 Z M 5.488281 15.128906 "/>
</g>
</svg>
