<?xml version="1.0" encoding="UTF-8"?>
<svg xmlns="http://www.w3.org/2000/svg" xmlns:xlink="http://www.w3.org/1999/xlink" width="64px" height="px" viewBox="0 0 64 64" version="1.1">
<g id="surface1">
<path style=" stroke:none;fill-rule:nonzero;fill:rgb(255,255,255);fill-opacity:1;" d="M 19.199219 19.199219 L 20.929688 17.949219 C 20.386719 17.199219 19.425781 16.886719 18.542969 17.171875 C 17.664062 17.453125 17.066406 18.273438 17.066406 19.199219 Z M 32 59.734375 C 16.683594 59.734375 4.265625 47.316406 4.265625 32 L 0 32 C 0 49.671875 14.328125 64 32 64 Z M 59.734375 32 C 59.734375 47.316406 47.316406 59.734375 32 59.734375 L 32 64 C 49.671875 64 64 49.671875 64 32 Z M 32 4.265625 C 47.316406 4.265625 59.734375 16.683594 59.734375 32 L 64 32 C 64 14.328125 49.671875 0 32 0 Z M 32 0 C 14.328125 0 0 14.328125 0 32 L 4.265625 32 C 4.265625 16.683594 16.683594 4.265625 32 4.265625 Z M 21.332031 51.199219 L 21.332031 19.199219 L 17.066406 19.199219 L 17.066406 51.199219 Z M 17.46875 20.449219 L 45.203125 58.847656 L 48.664062 56.351562 L 20.929688 17.949219 Z M 42.667969 17.066406 L 42.667969 42.667969 L 46.933594 42.667969 L 46.933594 17.066406 Z M 42.667969 17.066406 "/>
</g>
</svg>
