<?xml version="1.0" encoding="UTF-8"?>
<svg xmlns="http://www.w3.org/2000/svg" xmlns:xlink="http://www.w3.org/1999/xlink" width="64px" height="64px" viewBox="0 0 64 64" version="1.1">
<g id="surface1">
<path style=" stroke:none;fill-rule:nonzero;fill:rgb(118,74,188);fill-opacity:1;" d="M 44.34375 44.167969 C 46.707031 43.921875 48.5 41.867188 48.417969 39.398438 C 48.335938 36.933594 46.300781 34.960938 43.855469 34.960938 L 43.695312 34.960938 C 41.167969 35.042969 39.214844 37.179688 39.296875 39.726562 C 39.378906 40.960938 39.867188 42.03125 40.597656 42.769531 C 37.828125 48.277344 33.59375 52.308594 27.242188 55.679688 C 22.925781 57.980469 18.445312 58.800781 13.96875 58.226562 C 10.300781 57.734375 7.453125 56.089844 5.660156 53.375 C 3.054688 49.347656 2.808594 44.988281 5.007812 40.632812 C 6.554688 37.507812 9 35.207031 10.546875 34.054688 C 10.222656 32.988281 9.730469 31.179688 9.488281 29.863281 C -2.320312 38.496094 -1.101562 50.167969 2.484375 55.679688 C 5.171875 59.789062 10.628906 62.335938 16.65625 62.335938 C 18.285156 62.335938 19.914062 62.171875 21.542969 61.761719 C 31.964844 59.707031 39.867188 53.457031 44.34375 44.167969 Z M 58.679688 33.972656 C 52.488281 26.65625 43.367188 22.628906 32.941406 22.628906 L 31.640625 22.628906 C 30.90625 21.148438 29.359375 20.160156 27.648438 20.160156 L 27.488281 20.160156 C 24.960938 20.242188 23.007812 22.378906 23.089844 24.929688 C 23.171875 27.394531 25.207031 29.367188 27.648438 29.367188 L 27.8125 29.367188 C 29.605469 29.285156 31.152344 28.136719 31.804688 26.574219 L 33.269531 26.574219 C 39.457031 26.574219 45.324219 28.382812 50.617188 31.917969 C 54.6875 34.632812 57.621094 38.167969 59.25 42.441406 C 60.632812 45.894531 60.550781 49.265625 59.085938 52.144531 C 56.804688 56.5 52.976562 58.886719 47.929688 58.886719 C 44.671875 58.886719 41.578125 57.898438 39.949219 57.15625 C 39.050781 57.980469 37.421875 59.296875 36.28125 60.117188 C 39.785156 61.761719 43.367188 62.667969 46.789062 62.667969 C 54.605469 62.667969 60.390625 58.308594 62.589844 53.953125 C 64.949219 49.183594 64.789062 40.960938 58.679688 33.972656 Z M 17.304688 45.566406 C 17.386719 48.03125 19.421875 50.003906 21.867188 50.003906 L 22.03125 50.003906 C 24.554688 49.921875 26.507812 47.785156 26.429688 45.238281 C 26.347656 42.769531 24.308594 40.796875 21.867188 40.796875 L 21.703125 40.796875 C 21.542969 40.796875 21.296875 40.796875 21.132812 40.878906 C 17.796875 35.289062 16.410156 29.203125 16.898438 22.628906 C 17.226562 17.695312 18.855469 13.417969 21.703125 9.882812 C 24.066406 6.84375 28.625 5.363281 31.722656 5.28125 C 40.355469 5.117188 44.019531 15.96875 44.265625 20.324219 C 45.324219 20.570312 47.113281 21.148438 48.335938 21.558594 C 47.359375 8.238281 39.214844 1.332031 31.394531 1.332031 C 24.066406 1.332031 17.304688 6.675781 14.617188 14.570312 C 10.871094 25.09375 13.316406 35.207031 17.875 43.179688 C 17.46875 43.757812 17.226562 44.660156 17.304688 45.566406 Z M 17.304688 45.566406 "/>
</g>
</svg>
